<?xml version="1.0" encoding="UTF-8"?>
<svg id="_레이어_2" data-name="레이어 2" xmlns="http://www.w3.org/2000/svg" xmlns:xlink="http://www.w3.org/1999/xlink" viewBox="0 0 409.27 120">
  <defs>
    <style>
      .cls-1 {
        fill: url(#_무제_그라디언트_16-3);
      }

      .cls-2 {
        fill: url(#_무제_그라디언트_16-4);
      }

      .cls-3 {
        fill: url(#_무제_그라디언트_16-2);
      }

      .cls-4 {
        fill: url(#_무제_그라디언트_16);
      }

      .cls-5 {
        fill: url(#_무제_그라디언트_16-5);
      }
    </style>
    <linearGradient id="_무제_그라디언트_16" data-name="무제 그라디언트 16" x1="45.39" y1="63.87" x2="300.1" y2="214.46" gradientUnits="userSpaceOnUse">
      <stop offset="0" stop-color="#d406fe"/>
      <stop offset="1" stop-color="#36bdfd"/>
    </linearGradient>
    <linearGradient id="_무제_그라디언트_16-2" data-name="무제 그라디언트 16" x1="63.95" y1="37.42" x2="311.29" y2="183.66" xlink:href="#_무제_그라디언트_16"/>
    <linearGradient id="_무제_그라디언트_16-3" data-name="무제 그라디언트 16" x1="74.86" y1="14.01" x2="329.57" y2="164.61" xlink:href="#_무제_그라디언트_16"/>
    <linearGradient id="_무제_그라디언트_16-4" data-name="무제 그라디언트 16" x1="98.41" y1="-25.81" x2="353.12" y2="124.79" xlink:href="#_무제_그라디언트_16"/>
    <linearGradient id="_무제_그라디언트_16-5" data-name="무제 그라디언트 16" x1="126.63" y1="-73.54" x2="381.34" y2="77.06" xlink:href="#_무제_그라디언트_16"/>
  </defs>
  <g id="_레이어_1-2" data-name="레이어 1">
    <g>
      <path class="cls-4" d="M32.32,29.75v18.51h37.37v28.04h-37.37v40.75H0V.76h74.01v28.99h-41.69Z"/>
      <path class="cls-3" d="M84.2,0h30.9v117.06h-30.9V0Z"/>
      <path class="cls-1" d="M221.99,71.35c0,2.7-.24,5.41-.64,8.18h-66.61c2.02,10.29,8.56,15.61,18.31,15.61,7.22,0,13.25-3.16,16.22-8.41h30.75c-6.31,20.47-24.46,33.27-46.97,33.27-27.99,0-48.73-20.46-48.73-47.87s20.57-47.73,48.73-47.73,48.94,20.63,48.94,46.94h0ZM155.28,62.42h36.27c-2.71-8.97-9.17-13.8-18.5-13.8s-15.27,4.89-17.77,13.8Z"/>
      <path class="cls-2" d="M279.87,117.06l-14.75-26.57-15.04,26.57h-34.12l29.76-46.54-27.57-43.17h34.11l12.96,22.59,13.56-22.59h33.63l-27.8,42.36,29.81,47.35h-34.53Z"/>
      <path class="cls-5" d="M409.27,27.25v89.71h-23.89l-2.65-6.34c-7.35,5.95-16.65,9.38-27.07,9.38-27.43,0-47.04-20.01-47.04-47.89s19.61-47.56,47.04-47.56c10.57,0,20,3.53,27.41,9.64l3.16-6.94h23.03ZM379.88,72.18c0-11.64-8.51-20.39-20.08-20.39s-20.08,8.75-20.08,20.39,8.51,20.46,20.08,20.46,20.08-8.75,20.08-20.46Z"/>
    </g>
  </g>
</svg>