<svg width="48" height="48" viewBox="0 0 48 48" fill="none" xmlns="http://www.w3.org/2000/svg">
<g id="file_export">
<mask id="mask0_9738_33877" style="mask-type:alpha" maskUnits="userSpaceOnUse" x="0" y="0" width="48" height="48">
<rect id="Bounding box" width="48" height="48" fill="#D9D9D9"/>
</mask>
<g mask="url(#mask0_9738_33877)">
<path id="file_export_2" d="M16 38.85L11.5 43.35C11.1 43.75 10.6333 43.9417 10.1 43.925C9.56667 43.9083 9.1 43.7 8.7 43.3C8.33333 42.9 8.14167 42.4333 8.125 41.9C8.10833 41.3667 8.3 40.9 8.7 40.5L13.2 36H10.7C10.1333 36 9.65833 35.8083 9.275 35.425C8.89167 35.0417 8.7 34.5667 8.7 34C8.7 33.4333 8.89167 32.9583 9.275 32.575C9.65833 32.1917 10.1333 32 10.7 32H18C18.5667 32 19.0417 32.1917 19.425 32.575C19.8083 32.9583 20 33.4333 20 34V41.3C20 41.8667 19.8083 42.3417 19.425 42.725C19.0417 43.1083 18.5667 43.3 18 43.3C17.4333 43.3 16.9583 43.1083 16.575 42.725C16.1917 42.3417 16 41.8667 16 41.3V38.85ZM10 28C9.43333 28 8.95833 27.8083 8.575 27.425C8.19167 27.0417 8 26.5667 8 26V8C8 6.9 8.39167 5.95833 9.175 5.175C9.95833 4.39167 10.9 4 12 4H28L40 16V40C40 41.1 39.6083 42.0417 38.825 42.825C38.0417 43.6083 37.1 44 36 44H26C25.4333 44 24.9583 43.8083 24.575 43.425C24.1917 43.0417 24 42.5667 24 42C24 41.4333 24.1917 40.9583 24.575 40.575C24.9583 40.1917 25.4333 40 26 40H36V18H28C27.4333 18 26.9583 17.8083 26.575 17.425C26.1917 17.0417 26 16.5667 26 16V8H12V26C12 26.5667 11.8083 27.0417 11.425 27.425C11.0417 27.8083 10.5667 28 10 28Z" fill="#30374F"/>
</g>
</g>
</svg>
