<svg width="48" height="48" viewBox="0 0 48 48" fill="none" xmlns="http://www.w3.org/2000/svg">
<g id="link">
<mask id="mask0_9727_33819" style="mask-type:alpha" maskUnits="userSpaceOnUse" x="0" y="0" width="48" height="48">
<rect id="Bounding box" width="48" height="48" fill="#D9D9D9"/>
</mask>
<g mask="url(#mask0_9727_33819)">
<path id="link_2" d="M14 34C11.2333 34 8.875 33.025 6.925 31.075C4.975 29.125 4 26.7667 4 24C4 21.2333 4.975 18.875 6.925 16.925C8.875 14.975 11.2333 14 14 14H20C20.5667 14 21.0417 14.1917 21.425 14.575C21.8083 14.9583 22 15.4333 22 16C22 16.5667 21.8083 17.0417 21.425 17.425C21.0417 17.8083 20.5667 18 20 18H14C12.3333 18 10.9167 18.5833 9.75 19.75C8.58333 20.9167 8 22.3333 8 24C8 25.6667 8.58333 27.0833 9.75 28.25C10.9167 29.4167 12.3333 30 14 30H20C20.5667 30 21.0417 30.1917 21.425 30.575C21.8083 30.9583 22 31.4333 22 32C22 32.5667 21.8083 33.0417 21.425 33.425C21.0417 33.8083 20.5667 34 20 34H14ZM18 26C17.4333 26 16.9583 25.8083 16.575 25.425C16.1917 25.0417 16 24.5667 16 24C16 23.4333 16.1917 22.9583 16.575 22.575C16.9583 22.1917 17.4333 22 18 22H30C30.5667 22 31.0417 22.1917 31.425 22.575C31.8083 22.9583 32 23.4333 32 24C32 24.5667 31.8083 25.0417 31.425 25.425C31.0417 25.8083 30.5667 26 30 26H18ZM28 34C27.4333 34 26.9583 33.8083 26.575 33.425C26.1917 33.0417 26 32.5667 26 32C26 31.4333 26.1917 30.9583 26.575 30.575C26.9583 30.1917 27.4333 30 28 30H34C35.6667 30 37.0833 29.4167 38.25 28.25C39.4167 27.0833 40 25.6667 40 24C40 22.3333 39.4167 20.9167 38.25 19.75C37.0833 18.5833 35.6667 18 34 18H28C27.4333 18 26.9583 17.8083 26.575 17.425C26.1917 17.0417 26 16.5667 26 16C26 15.4333 26.1917 14.9583 26.575 14.575C26.9583 14.1917 27.4333 14 28 14H34C36.7667 14 39.125 14.975 41.075 16.925C43.025 18.875 44 21.2333 44 24C44 26.7667 43.025 29.125 41.075 31.075C39.125 33.025 36.7667 34 34 34H28Z" fill="#30374F"/>
</g>
</g>
</svg>
