<svg width="48" height="48" viewBox="0 0 48 48" fill="none" xmlns="http://www.w3.org/2000/svg">
<mask id="mask0_9727_16714" style="mask-type:alpha" maskUnits="userSpaceOnUse" x="0" y="0" width="48" height="48">
<rect width="48" height="48" fill="#D9D9D9"/>
</mask>
<g mask="url(#mask0_9727_16714)">
<path d="M6 38C5.43333 38 4.95833 37.8083 4.575 37.425C4.19167 37.0417 4 36.5667 4 36C4 35.4333 4.19167 34.9583 4.575 34.575C4.95833 34.1917 5.43333 34 6 34H22C22.5667 34 23.0417 34.1917 23.425 34.575C23.8083 34.9583 24 35.4333 24 36C24 36.5667 23.8083 37.0417 23.425 37.425C23.0417 37.8083 22.5667 38 22 38H6ZM6 28C5.43333 28 4.95833 27.8083 4.575 27.425C4.19167 27.0417 4 26.5667 4 26C4 25.4333 4.19167 24.9583 4.575 24.575C4.95833 24.1917 5.43333 24 6 24H12C12.5667 24 13.0417 24.1917 13.425 24.575C13.8083 24.9583 14 25.4333 14 26C14 26.5667 13.8083 27.0417 13.425 27.425C13.0417 27.8083 12.5667 28 12 28H6ZM6 18C5.43333 18 4.95833 17.8083 4.575 17.425C4.19167 17.0417 4 16.5667 4 16C4 15.4333 4.19167 14.9583 4.575 14.575C4.95833 14.1917 5.43333 14 6 14H12C12.5667 14 13.0417 14.1917 13.425 14.575C13.8083 14.9583 14 15.4333 14 16C14 16.5667 13.8083 17.0417 13.425 17.425C13.0417 17.8083 12.5667 18 12 18H6ZM28 32C25.2333 32 22.875 31.025 20.925 29.075C18.975 27.125 18 24.7667 18 22C18 19.2333 18.975 16.875 20.925 14.925C22.875 12.975 25.2333 12 28 12C30.7667 12 33.125 12.975 35.075 14.925C37.025 16.875 38 19.2333 38 22C38 22.9667 37.8583 23.925 37.575 24.875C37.2917 25.825 36.8667 26.7 36.3 27.5L42.6 33.8C42.9667 34.1667 43.15 34.6333 43.15 35.2C43.15 35.7667 42.9667 36.2333 42.6 36.6C42.2333 36.9667 41.7667 37.15 41.2 37.15C40.6333 37.15 40.1667 36.9667 39.8 36.6L33.5 30.3C32.7 30.8667 31.825 31.2917 30.875 31.575C29.925 31.8583 28.9667 32 28 32ZM28 28C29.6667 28 31.0833 27.4167 32.25 26.25C33.4167 25.0833 34 23.6667 34 22C34 20.3333 33.4167 18.9167 32.25 17.75C31.0833 16.5833 29.6667 16 28 16C26.3333 16 24.9167 16.5833 23.75 17.75C22.5833 18.9167 22 20.3333 22 22C22 23.6667 22.5833 25.0833 23.75 26.25C24.9167 27.4167 26.3333 28 28 28Z" fill="#30374F"/>
</g>
</svg>
