<svg width="48" height="48" viewBox="0 0 48 48" fill="none" xmlns="http://www.w3.org/2000/svg">
<g id="mark_email_read">
<mask id="mask0_9769_2652" style="mask-type:alpha" maskUnits="userSpaceOnUse" x="0" y="0" width="48" height="48">
<rect id="Bounding box" width="48" height="48" fill="#D9D9D9"/>
</mask>
<g mask="url(#mask0_9769_2652)">
<path id="mark_email_read_2" d="M8 12L24 22L40 12H8ZM8 40C6.9 40 5.95833 39.6083 5.175 38.825C4.39167 38.0417 4 37.1 4 36V12C4 10.9 4.39167 9.95833 5.175 9.175C5.95833 8.39167 6.9 8 8 8H40C41.1 8 42.0417 8.39167 42.825 9.175C43.6083 9.95833 44 10.9 44 12V22C44 22.5667 43.8083 23.0417 43.425 23.425C43.0417 23.8083 42.5667 24 42 24C41.4333 24 40.9583 23.8083 40.575 23.425C40.1917 23.0417 40 22.5667 40 22V16L25.05 25.35C24.95 25.4167 24.6 25.5167 24 25.65C23.8333 25.65 23.6583 25.625 23.475 25.575C23.2917 25.525 23.1167 25.45 22.95 25.35L8 16V36H19C19.5667 36 20.0417 36.1917 20.425 36.575C20.8083 36.9583 21 37.4333 21 38C21 38.5667 20.8083 39.0417 20.425 39.425C20.0417 39.8083 19.5667 40 19 40H8ZM31.9 38.4L41.8 28.5C42.1667 28.1333 42.6333 27.95 43.2 27.95C43.7667 27.95 44.2333 28.1333 44.6 28.5C44.9667 28.8667 45.15 29.3333 45.15 29.9C45.15 30.4667 44.9667 30.9333 44.6 31.3L33.3 42.6C32.9 43 32.4333 43.2 31.9 43.2C31.3667 43.2 30.9 43 30.5 42.6L24.8 36.9C24.4333 36.5333 24.25 36.0667 24.25 35.5C24.25 34.9333 24.4333 34.4667 24.8 34.1C25.1667 33.7333 25.6333 33.55 26.2 33.55C26.7667 33.55 27.2333 33.7333 27.6 34.1L31.9 38.4Z" fill="#30374F"/>
</g>
</g>
</svg>
