<svg width="48" height="48" viewBox="0 0 48 48" fill="none" xmlns="http://www.w3.org/2000/svg">
<g id="report_off">
<mask id="mask0_9727_16738" style="mask-type:alpha" maskUnits="userSpaceOnUse" x="0" y="0" width="48" height="48">
<rect id="Bounding box" width="48" height="48" fill="#D9D9D9"/>
</mask>
<g mask="url(#mask0_9727_16738)">
<path id="report_off_2" d="M29.85 6C30.3834 6 30.8917 6.1 31.375 6.3C31.8584 6.5 32.2834 6.78333 32.65 7.15L40.85 15.35C41.2167 15.7167 41.5 16.1417 41.7 16.625C41.9 17.1083 42 17.6167 42 18.15V30C42 30.5667 41.8084 31.0417 41.425 31.425C41.0417 31.8083 40.5667 32 40 32C39.4334 32 38.9584 31.8083 38.575 31.425C38.1917 31.0417 38 30.5667 38 30V18.2L29.8 10H18C17.4334 10 16.9584 9.80833 16.575 9.425C16.1917 9.04167 16 8.56667 16 8C16 7.43333 16.1917 6.95833 16.575 6.575C16.9584 6.19167 17.4334 6 18 6H29.85ZM18.15 42C17.6167 42 17.1084 41.8917 16.625 41.675C16.1417 41.4583 15.7167 41.1667 15.35 40.8L7.15002 32.55C6.78336 32.1833 6.50002 31.7583 6.30002 31.275C6.10002 30.7917 6.00002 30.2833 6.00002 29.75V18.15C6.00002 17.6167 6.10002 17.1083 6.30002 16.625C6.50002 16.1417 6.78336 15.7167 7.15002 15.35L8.40002 14.1L4.20002 9.8C3.83336 9.43333 3.64169 8.975 3.62502 8.425C3.60836 7.875 3.80002 7.4 4.20002 7C4.56669 6.63333 5.03336 6.45 5.60002 6.45C6.16669 6.45 6.63336 6.63333 7.00002 7L41 41C41.3667 41.3667 41.55 41.8333 41.55 42.4C41.55 42.9667 41.3667 43.4333 41 43.8C40.6334 44.1667 40.1667 44.35 39.6 44.35C39.0334 44.35 38.5667 44.1667 38.2 43.8L33.9 39.5L32.7 40.75C32.3334 41.15 31.9 41.4583 31.4 41.675C30.9 41.8917 30.3667 42 29.8 42H18.15ZM18.2 38H29.8L31.1 36.7L11.3 16.9L10 18.2V29.8L18.2 38Z" fill="#30374F"/>
</g>
</g>
</svg>
