<svg width="48" height="48" viewBox="0 0 48 48" fill="none" xmlns="http://www.w3.org/2000/svg">
<g id="task_alt">
<mask id="mask0_9727_16901" style="mask-type:alpha" maskUnits="userSpaceOnUse" x="0" y="0" width="48" height="48">
<rect id="Bounding box" width="48" height="48" fill="#D9D9D9"/>
</mask>
<g mask="url(#mask0_9727_16901)">
<path id="task_alt_2" d="M24 44C21.2333 44 18.6333 43.475 16.2 42.425C13.7667 41.375 11.65 39.95 9.85 38.15C8.05 36.35 6.625 34.2333 5.575 31.8C4.525 29.3667 4 26.7667 4 24C4 21.2333 4.525 18.6333 5.575 16.2C6.625 13.7667 8.05 11.65 9.85 9.85C11.65 8.05 13.7667 6.625 16.2 5.575C18.6333 4.525 21.2333 4 24 4C25.6 4 27.1583 4.18333 28.675 4.55C30.1917 4.91667 31.65 5.45 33.05 6.15C33.55 6.41667 33.875 6.81667 34.025 7.35C34.175 7.88333 34.0833 8.38333 33.75 8.85C33.4167 9.31667 32.975 9.61667 32.425 9.75C31.875 9.88333 31.3333 9.81667 30.8 9.55C29.7333 9.05 28.625 8.66667 27.475 8.4C26.325 8.13333 25.1667 8 24 8C19.5667 8 15.7917 9.55833 12.675 12.675C9.55833 15.7917 8 19.5667 8 24C8 28.4333 9.55833 32.2083 12.675 35.325C15.7917 38.4417 19.5667 40 24 40C28.4333 40 32.2083 38.4417 35.325 35.325C38.4417 32.2083 40 28.4333 40 24C40 23.7333 39.9917 23.475 39.975 23.225C39.9583 22.975 39.9333 22.7167 39.9 22.45C39.8333 21.8833 39.9417 21.3417 40.225 20.825C40.5083 20.3083 40.9333 19.9667 41.5 19.8C42.0333 19.6333 42.5333 19.6833 43 19.95C43.4667 20.2167 43.7333 20.6167 43.8 21.15C43.8667 21.6167 43.9167 22.0833 43.95 22.55C43.9833 23.0167 44 23.5 44 24C44 26.7667 43.475 29.3667 42.425 31.8C41.375 34.2333 39.95 36.35 38.15 38.15C36.35 39.95 34.2333 41.375 31.8 42.425C29.3667 43.475 26.7667 44 24 44ZM21.2 27.6L39.8 8.95C40.1667 8.58333 40.625 8.39167 41.175 8.375C41.725 8.35833 42.2 8.55 42.6 8.95C42.9667 9.31667 43.15 9.78333 43.15 10.35C43.15 10.9167 42.9667 11.3833 42.6 11.75L22.6 31.8C22.2 32.2 21.7333 32.4 21.2 32.4C20.6667 32.4 20.2 32.2 19.8 31.8L14.1 26.1C13.7333 25.7333 13.55 25.2667 13.55 24.7C13.55 24.1333 13.7333 23.6667 14.1 23.3C14.4667 22.9333 14.9333 22.75 15.5 22.75C16.0667 22.75 16.5333 22.9333 16.9 23.3L21.2 27.6Z" fill="#30374F"/>
</g>
</g>
</svg>
