<svg width="48" height="48" viewBox="0 0 48 48" fill="none" xmlns="http://www.w3.org/2000/svg">
<g id="warning">
<mask id="mask0_9727_16872" style="mask-type:alpha" maskUnits="userSpaceOnUse" x="0" y="0" width="48" height="48">
<rect id="Bounding box" width="48" height="48" fill="#D9D9D9"/>
</mask>
<g mask="url(#mask0_9727_16872)">
<path id="warning_2" d="M5.44958 42C5.08291 42 4.74958 41.9083 4.44958 41.725C4.14958 41.5417 3.91625 41.3 3.74958 41C3.58291 40.7 3.49125 40.375 3.47458 40.025C3.45791 39.675 3.54958 39.3333 3.74958 39L22.2496 7C22.4496 6.66667 22.7079 6.41667 23.0246 6.25C23.3412 6.08333 23.6662 6 23.9996 6C24.3329 6 24.6579 6.08333 24.9746 6.25C25.2912 6.41667 25.5496 6.66667 25.7496 7L44.2496 39C44.4496 39.3333 44.5412 39.675 44.5246 40.025C44.5079 40.375 44.4162 40.7 44.2496 41C44.0829 41.3 43.8496 41.5417 43.5496 41.725C43.2496 41.9083 42.9162 42 42.5496 42H5.44958ZM8.89958 38H39.0996L23.9996 12L8.89958 38ZM23.9996 36C24.5662 36 25.0412 35.8083 25.4246 35.425C25.8079 35.0417 25.9996 34.5667 25.9996 34C25.9996 33.4333 25.8079 32.9583 25.4246 32.575C25.0412 32.1917 24.5662 32 23.9996 32C23.4329 32 22.9579 32.1917 22.5746 32.575C22.1912 32.9583 21.9996 33.4333 21.9996 34C21.9996 34.5667 22.1912 35.0417 22.5746 35.425C22.9579 35.8083 23.4329 36 23.9996 36ZM23.9996 30C24.5662 30 25.0412 29.8083 25.4246 29.425C25.8079 29.0417 25.9996 28.5667 25.9996 28V22C25.9996 21.4333 25.8079 20.9583 25.4246 20.575C25.0412 20.1917 24.5662 20 23.9996 20C23.4329 20 22.9579 20.1917 22.5746 20.575C22.1912 20.9583 21.9996 21.4333 21.9996 22V28C21.9996 28.5667 22.1912 29.0417 22.5746 29.425C22.9579 29.8083 23.4329 30 23.9996 30Z" fill="#30374F"/>
</g>
</g>
</svg>
