<svg width="40" height="40" viewBox="0 0 40 40" fill="none" xmlns="http://www.w3.org/2000/svg">
<rect x="0.5" y="0.5" width="39" height="39" rx="19.5" fill="white"/>
<rect x="0.5" y="0.5" width="39" height="39" rx="19.5" stroke="#7F56D9"/>
<path d="M18.7499 19.9998H14.1665M14.096 20.2427L12.1502 26.055C11.9974 26.5116 11.9209 26.7399 11.9758 26.8805C12.0234 27.0026 12.1257 27.0952 12.2519 27.1304C12.3973 27.171 12.6169 27.0722 13.056 26.8746L26.9822 20.6078C27.4108 20.4149 27.6251 20.3185 27.6913 20.1845C27.7489 20.0681 27.7489 19.9315 27.6913 19.8152C27.6251 19.6812 27.4108 19.5848 26.9822 19.3919L13.0511 13.1229C12.6133 12.9259 12.3944 12.8274 12.2492 12.8678C12.1231 12.9029 12.0208 12.9952 11.973 13.1171C11.918 13.2574 11.9936 13.4853 12.1448 13.9409L14.0965 19.8211C14.1225 19.8994 14.1355 19.9385 14.1406 19.9785C14.1452 20.014 14.1451 20.05 14.1405 20.0855C14.1352 20.1255 14.1222 20.1646 14.096 20.2427Z" stroke="#7F56D9" stroke-width="1.66667" stroke-linecap="round" stroke-linejoin="round"/>
</svg>
