<svg width="30" height="30" viewBox="0 0 30 30" fill="none" xmlns="http://www.w3.org/2000/svg">
<path d="M14.9993 15.8334C15.4596 15.8334 15.8327 15.4603 15.8327 15C15.8327 14.5398 15.4596 14.1667 14.9993 14.1667C14.5391 14.1667 14.166 14.5398 14.166 15C14.166 15.4603 14.5391 15.8334 14.9993 15.8334Z" stroke="#7D89B0" stroke-width="1.66667" stroke-linecap="round" stroke-linejoin="round"/>
<path d="M14.9993 10C15.4596 10 15.8327 9.62694 15.8327 9.16671C15.8327 8.70647 15.4596 8.33337 14.9993 8.33337C14.5391 8.33337 14.166 8.70647 14.166 9.16671C14.166 9.62694 14.5391 10 14.9993 10Z" stroke="#7D89B0" stroke-width="1.66667" stroke-linecap="round" stroke-linejoin="round"/>
<path d="M14.9993 21.6667C15.4596 21.6667 15.8327 21.2936 15.8327 20.8334C15.8327 20.3731 15.4596 20 14.9993 20C14.5391 20 14.166 20.3731 14.166 20.8334C14.166 21.2936 14.5391 21.6667 14.9993 21.6667Z" stroke="#7D89B0" stroke-width="1.66667" stroke-linecap="round" stroke-linejoin="round"/>
</svg>
