<svg width="100" height="83" viewBox="0 0 100 83" fill="none" xmlns="http://www.w3.org/2000/svg">
<g id="Group 21114">
<rect id="Rectangle 3466" x="3" y="3" width="94" height="66" rx="3" stroke="#DCDFEA" stroke-width="6"/>
<g id="Group 21113">
<path id="Vector 48" d="M37.5 50.5V50.5C43.2086 41.9371 55.7914 41.9371 61.5 50.5V50.5" stroke="#DCDFEA" stroke-width="2.6" stroke-linecap="round"/>
<g id="close_small">
<mask id="mask0_9135_13019" style="mask-type:alpha" maskUnits="userSpaceOnUse" x="22" y="20" width="24" height="24">
<rect id="Bounding box" x="22" y="20" width="24" height="24" fill="#D9D9D9"/>
</mask>
<g mask="url(#mask0_9135_13019)">
<path id="close_small_2" d="M32.3148 32.0008L29.532 34.7836C29.3075 35.0081 29.1984 35.294 29.1984 35.625C29.1984 35.9559 29.3075 36.2419 29.532 36.4664L29.5324 36.4668C29.758 36.6912 30.0452 36.8 30.3774 36.8C30.7097 36.8 30.9969 36.6912 31.2227 36.4669L31.2233 36.4662L33.998 33.6836L36.7538 36.4631C36.9751 36.7031 37.2571 36.825 37.5859 36.825C37.9156 36.825 38.2035 36.7027 38.4399 36.4664L38.4402 36.466C38.6646 36.2404 38.7734 35.9533 38.7734 35.621C38.7734 35.2887 38.6646 35.0015 38.4403 34.7758L38.4397 34.7751L35.6571 32.0004L38.4366 29.2447C38.6766 29.0233 38.7984 28.7413 38.7984 28.4125C38.7984 28.0828 38.6762 27.7949 38.4399 27.5586L38.4395 27.5582C38.2139 27.3338 37.9267 27.225 37.5944 27.225C37.2622 27.225 36.975 27.3338 36.7492 27.5581L36.748 27.5594L33.9976 30.3413L31.2149 27.5586C30.9904 27.3341 30.7044 27.225 30.3734 27.225C30.0425 27.225 29.7565 27.3341 29.532 27.5586L29.532 27.5586L29.5316 27.559C29.3073 27.7845 29.1984 28.0717 29.1984 28.404C29.1984 28.7363 29.3073 29.0235 29.5316 29.2492L29.5316 29.2492L29.5328 29.2505L32.3148 32.0008Z" fill="#DCDFEA" stroke="#DCDFEA" stroke-width="0.4"/>
</g>
</g>
<g id="close_small_3">
<mask id="mask1_9135_13019" style="mask-type:alpha" maskUnits="userSpaceOnUse" x="54" y="20" width="24" height="24">
<rect id="Bounding box_2" x="54" y="20" width="24" height="24" fill="#D9D9D9"/>
</mask>
<g mask="url(#mask1_9135_13019)">
<path id="close_small_4" d="M64.3148 32.0008L61.532 34.7836C61.3075 35.0081 61.1984 35.294 61.1984 35.625C61.1984 35.9559 61.3075 36.2419 61.532 36.4664L61.5324 36.4668C61.758 36.6912 62.0452 36.8 62.3774 36.8C62.7097 36.8 62.9969 36.6912 63.2227 36.4669L63.2233 36.4662L65.998 33.6836L68.7538 36.4631C68.9751 36.7031 69.2571 36.825 69.5859 36.825C69.9156 36.825 70.2035 36.7027 70.4399 36.4664L70.4402 36.466C70.6646 36.2404 70.7734 35.9533 70.7734 35.621C70.7734 35.2887 70.6646 35.0015 70.4403 34.7758L70.4397 34.7751L67.6571 32.0004L70.4366 29.2447C70.6766 29.0233 70.7984 28.7413 70.7984 28.4125C70.7984 28.0828 70.6762 27.7949 70.4399 27.5586L70.4395 27.5582C70.2139 27.3338 69.9267 27.225 69.5944 27.225C69.2622 27.225 68.975 27.3338 68.7492 27.5581L68.748 27.5594L65.9976 30.3413L63.2149 27.5586C62.9904 27.3341 62.7044 27.225 62.3734 27.225C62.0425 27.225 61.7565 27.3341 61.532 27.5586L61.532 27.5586L61.5316 27.559C61.3073 27.7845 61.1984 28.0717 61.1984 28.404C61.1984 28.7363 61.3073 29.0235 61.5316 29.2492L61.5316 29.2492L61.5328 29.2505L64.3148 32.0008Z" fill="#DCDFEA" stroke="#DCDFEA" stroke-width="0.4"/>
</g>
</g>
</g>
<path id="Vector 49" d="M5 80L95 80" stroke="#DCDFEA" stroke-width="6" stroke-linecap="round"/>
</g>
</svg>
