<svg width="24" height="24" viewBox="0 0 24 24" fill="none" xmlns="http://www.w3.org/2000/svg">
<g id="chevron_backward">
<mask id="mask0_7868_18598" style="mask-type:alpha" maskUnits="userSpaceOnUse" x="0" y="0" width="24" height="24">
<rect id="Bounding box" width="24" height="24" transform="matrix(-1 0 0 1 24 0)" fill="#D9D9D9"/>
</mask>
<g mask="url(#mask0_7868_18598)">
<path id="chevron_backward_2" d="M13.2002 12L9.3002 15.9C9.11686 16.0833 9.0252 16.3167 9.0252 16.6C9.0252 16.8833 9.11686 17.1167 9.3002 17.3C9.48353 17.4833 9.71686 17.575 10.0002 17.575C10.2835 17.575 10.5169 17.4833 10.7002 17.3L15.3002 12.7C15.4002 12.6 15.471 12.4917 15.5127 12.375C15.5544 12.2583 15.5752 12.1333 15.5752 12C15.5752 11.8667 15.5544 11.7417 15.5127 11.625C15.471 11.5083 15.4002 11.4 15.3002 11.3L10.7002 6.69999C10.5169 6.51665 10.2835 6.42499 10.0002 6.42499C9.71686 6.42499 9.48353 6.51665 9.3002 6.69999C9.11686 6.88332 9.0252 7.11665 9.0252 7.39999C9.0252 7.68332 9.11686 7.91665 9.3002 8.09999L13.2002 12Z" fill="#7F56D9"/>
</g>
</g>
</svg>
