<svg width="20" height="20" viewBox="0 0 20 20" fill="none" xmlns="http://www.w3.org/2000/svg">
<g id="autorenew">
<mask id="mask0_9400_9443" style="mask-type:alpha" maskUnits="userSpaceOnUse" x="0" y="0" width="20" height="20">
<rect id="Bounding box" width="20" height="20" fill="#D9D9D9"/>
</mask>
<g mask="url(#mask0_9400_9443)">
<path id="autorenew_2" d="M4.9987 10.0415C4.9987 10.2637 5.01259 10.4825 5.04036 10.6977C5.06814 10.913 5.11675 11.1248 5.1862 11.3332C5.25564 11.5693 5.2487 11.795 5.16536 12.0102C5.08203 12.2255 4.9362 12.3818 4.72786 12.479C4.50564 12.5901 4.28689 12.6005 4.07161 12.5103C3.85634 12.42 3.71398 12.2568 3.64453 12.0207C3.53342 11.7012 3.45356 11.3748 3.40495 11.0415C3.35634 10.7082 3.33203 10.3748 3.33203 10.0415C3.33203 8.18039 3.97786 6.59705 5.26953 5.2915C6.5612 3.98594 8.13759 3.33317 9.9987 3.33317H10.1445L9.39453 2.58317C9.24175 2.43039 9.16536 2.23594 9.16536 1.99983C9.16536 1.76372 9.24175 1.56928 9.39453 1.4165C9.54731 1.26372 9.74175 1.18733 9.97786 1.18733C10.214 1.18733 10.4084 1.26372 10.5612 1.4165L12.7279 3.58317C12.8945 3.74983 12.9779 3.94428 12.9779 4.1665C12.9779 4.38872 12.8945 4.58317 12.7279 4.74983L10.5612 6.9165C10.4084 7.06928 10.214 7.14567 9.97786 7.14567C9.74175 7.14567 9.54731 7.06928 9.39453 6.9165C9.24175 6.76372 9.16536 6.56928 9.16536 6.33317C9.16536 6.09705 9.24175 5.90261 9.39453 5.74983L10.1445 4.99983H9.9987C8.60981 4.99983 7.42925 5.48942 6.45703 6.46858C5.48481 7.44775 4.9987 8.63872 4.9987 10.0415ZM14.9987 9.95817C14.9987 9.73594 14.9848 9.51719 14.957 9.30192C14.9293 9.08664 14.8806 8.87483 14.8112 8.6665C14.7418 8.43039 14.7487 8.20469 14.832 7.98942C14.9154 7.77414 15.0612 7.61789 15.2695 7.52067C15.4918 7.40955 15.7105 7.39914 15.9258 7.48942C16.1411 7.57969 16.2834 7.74289 16.3529 7.979C16.464 8.29844 16.5438 8.62483 16.5924 8.95817C16.6411 9.2915 16.6654 9.62483 16.6654 9.95817C16.6654 11.8193 16.0195 13.4026 14.7279 14.7082C13.4362 16.0137 11.8598 16.6665 9.9987 16.6665H9.85286L10.6029 17.4165C10.7556 17.5693 10.832 17.7637 10.832 17.9998C10.832 18.2359 10.7556 18.4304 10.6029 18.5832C10.4501 18.7359 10.2556 18.8123 10.0195 18.8123C9.78342 18.8123 9.58898 18.7359 9.4362 18.5832L7.26953 16.4165C7.10286 16.2498 7.01953 16.0554 7.01953 15.8332C7.01953 15.6109 7.10286 15.4165 7.26953 15.2498L9.4362 13.0832C9.58898 12.9304 9.78342 12.854 10.0195 12.854C10.2556 12.854 10.4501 12.9304 10.6029 13.0832C10.7556 13.2359 10.832 13.4304 10.832 13.6665C10.832 13.9026 10.7556 14.0971 10.6029 14.2498L9.85286 14.9998H9.9987C11.3876 14.9998 12.5681 14.5102 13.5404 13.5311C14.5126 12.5519 14.9987 11.3609 14.9987 9.95817Z" fill="white"/>
</g>
</g>
</svg>
