<svg width="50" height="50" viewBox="0 0 50 50" fill="none" xmlns="http://www.w3.org/2000/svg">
<g id="forum">
<mask id="mask0_9506_11422" style="mask-type:alpha" maskUnits="userSpaceOnUse" x="0" y="0" width="50" height="50">
<rect id="Bounding box" width="50" height="50" fill="#D9D9D9"/>
</mask>
<g mask="url(#mask0_9506_11422)">
<path id="forum_2" d="M43.7474 42.9169C43.4696 42.9169 43.2092 42.8648 42.9661 42.7606C42.7231 42.6565 42.4974 42.5002 42.2891 42.2919L37.4974 37.5002H16.6641C15.5182 37.5002 14.5373 37.0922 13.7214 36.2762C12.9054 35.4603 12.4974 34.4794 12.4974 33.3335V31.2502H35.4141C36.5599 31.2502 37.5408 30.8422 38.3568 30.0262C39.1727 29.2103 39.5807 28.2294 39.5807 27.0835V12.5002H41.6641C42.8099 12.5002 43.7908 12.9082 44.6068 13.7242C45.4227 14.5401 45.8307 15.521 45.8307 16.6669V40.7815C45.8307 41.4065 45.6224 41.9186 45.2057 42.3179C44.7891 42.7172 44.3029 42.9169 43.7474 42.9169ZM8.33073 25.3648L10.7786 22.9169H31.2474V8.33354H8.33073V25.3648ZM6.2474 32.5002C5.69184 32.5002 5.20573 32.3006 4.78906 31.9012C4.3724 31.5019 4.16406 30.9898 4.16406 30.3648V8.33354C4.16406 7.1877 4.57205 6.2068 5.38802 5.39083C6.20399 4.57486 7.1849 4.16687 8.33073 4.16687H31.2474C32.3932 4.16687 33.3741 4.57486 34.1901 5.39083C35.0061 6.2068 35.4141 7.1877 35.4141 8.33354V22.9169C35.4141 24.0627 35.0061 25.0436 34.1901 25.8596C33.3741 26.6756 32.3932 27.0835 31.2474 27.0835H12.4974L7.70573 31.8752C7.4974 32.0835 7.2717 32.2398 7.02865 32.344C6.78559 32.4481 6.52517 32.5002 6.2474 32.5002Z" fill="#B9C0D4"/>
</g>
</g>
</svg>
