<svg width="40" height="40" viewBox="0 0 40 40" fill="none" xmlns="http://www.w3.org/2000/svg">
<g id="Featured icon">
<rect x="0.5" y="0.5" width="39" height="39" rx="19.5" fill="#F9F9FB"/>
<rect x="0.5" y="0.5" width="39" height="39" rx="19.5" stroke="#B9C0D4"/>
<g id="mark_email_read">
<mask id="mask0_7983_5654" style="mask-type:alpha" maskUnits="userSpaceOnUse" x="10" y="10" width="20" height="20">
<rect id="Bounding box" x="10" y="10" width="20" height="20" fill="#D9D9D9"/>
</mask>
<g mask="url(#mask0_7983_5654)">
<path id="mark_email_read_2" d="M13.3337 15L20.0003 19.1666L26.667 15H13.3337ZM13.3337 26.6666C12.8753 26.6666 12.483 26.5035 12.1566 26.1771C11.8302 25.8507 11.667 25.4583 11.667 25V15C11.667 14.5416 11.8302 14.1493 12.1566 13.8229C12.483 13.4965 12.8753 13.3333 13.3337 13.3333H26.667C27.1253 13.3333 27.5177 13.4965 27.8441 13.8229C28.1705 14.1493 28.3337 14.5416 28.3337 15V19.1666C28.3337 19.4028 28.2538 19.6007 28.0941 19.7604C27.9344 19.9201 27.7364 20 27.5003 20C27.2642 20 27.0663 19.9201 26.9066 19.7604C26.7469 19.6007 26.667 19.4028 26.667 19.1666V16.6666L20.4378 20.5625C20.3962 20.5903 20.2503 20.6319 20.0003 20.6875C19.9309 20.6875 19.858 20.6771 19.7816 20.6562C19.7052 20.6354 19.6323 20.6041 19.5628 20.5625L13.3337 16.6666V25H17.917C18.1531 25 18.351 25.0798 18.5107 25.2396C18.6705 25.3993 18.7503 25.5972 18.7503 25.8333C18.7503 26.0694 18.6705 26.2673 18.5107 26.4271C18.351 26.5868 18.1531 26.6666 17.917 26.6666H13.3337ZM23.292 26L27.417 21.875C27.5698 21.7222 27.7642 21.6458 28.0003 21.6458C28.2364 21.6458 28.4309 21.7222 28.5837 21.875C28.7364 22.0278 28.8128 22.2222 28.8128 22.4583C28.8128 22.6944 28.7364 22.8889 28.5837 23.0416L23.8753 27.75C23.7087 27.9166 23.5142 28 23.292 28C23.0698 28 22.8753 27.9166 22.7087 27.75L20.3337 25.375C20.1809 25.2222 20.1045 25.0278 20.1045 24.7916C20.1045 24.5555 20.1809 24.3611 20.3337 24.2083C20.4864 24.0555 20.6809 23.9791 20.917 23.9791C21.1531 23.9791 21.3475 24.0555 21.5003 24.2083L23.292 26Z" fill="#5D6B98"/>
</g>
</g>
</g>
</svg>
