<svg width="60" height="60" viewBox="0 0 60 60" fill="none" xmlns="http://www.w3.org/2000/svg">
<g id="Group 21082">
<circle id="Ellipse 18" cx="30" cy="30" r="28.5" fill="white" stroke="#079455" stroke-width="3"/>
<g id="check">
<mask id="mask0_7914_37948" style="mask-type:alpha" maskUnits="userSpaceOnUse" x="10" y="10" width="40" height="40">
<rect id="Bounding box" x="10" y="10" width="40" height="40" fill="#D9D9D9"/>
</mask>
<g mask="url(#mask0_7914_37948)">
<path id="check_2" d="M25.9178 35.25L40.0428 21.125C40.3762 20.7917 40.765 20.625 41.2095 20.625C41.6539 20.625 42.0428 20.7917 42.3762 21.125C42.7095 21.4583 42.8762 21.8542 42.8762 22.3125C42.8762 22.7708 42.7095 23.1667 42.3762 23.5L27.0845 38.8333C26.7512 39.1667 26.3623 39.3333 25.9178 39.3333C25.4734 39.3333 25.0845 39.1667 24.7512 38.8333L17.5845 31.6667C17.2512 31.3333 17.0914 30.9375 17.1053 30.4792C17.1192 30.0208 17.2928 29.625 17.6262 29.2917C17.9595 28.9583 18.3553 28.7917 18.8137 28.7917C19.272 28.7917 19.6678 28.9583 20.0012 29.2917L25.9178 35.25Z" fill="#079455"/>
</g>
</g>
</g>
</svg>
