<svg width="20" height="40" viewBox="0 0 20 40" fill="none" xmlns="http://www.w3.org/2000/svg">
<path d="M17.1606 9.99375V22.8692C17.1606 23.3948 17.1606 23.6576 17.1293 23.8322C17.0946 24.0264 17.0717 24.1019 16.9925 24.2826C16.9214 24.4451 16.7685 24.6735 16.4628 25.1303C14.7293 27.7209 10.3782 34.3226 10.2658 34.368C10.1585 34.4113 10.002 34.4113 9.8947 34.368C9.78226 34.3225 5.49881 27.7073 3.7975 25.1224C3.49592 24.6641 3.34513 24.435 3.27634 24.2767C3.1986 24.0978 3.17809 24.0304 3.14309 23.8384C3.11213 23.6686 3.10999 23.4072 3.1057 22.8843L3 9.99375C3 8.66123 3 7.99498 3.11573 7.42226C3.21796 6.91632 3.38409 6.46488 3.59975 6.10697C3.71402 5.91733 3.84738 5.7652 4.02487 5.60903L4.02488 5.60903C4.2174 5.43964 4.31366 5.35494 4.50386 5.24977C4.64755 5.17032 4.88178 5.08196 5.04214 5.0467C5.25441 5.00003 5.45421 5.00004 5.8538 5.00007L9.58307 5.00031L14.3068 5.00005C14.7064 5.00003 14.9061 5.00002 15.1184 5.04669C15.2788 5.08195 15.513 5.17032 15.6567 5.24976C15.8469 5.35493 15.9431 5.43962 16.1357 5.60902C16.3132 5.76519 16.4465 5.91732 16.5608 6.10697C16.7765 6.46488 16.9426 6.91632 17.0448 7.42226C17.1606 7.99498 17.1606 8.66123 17.1606 9.99375Z" fill="white" stroke="#111322" stroke-width="2" stroke-linecap="round" stroke-linejoin="round"/>
</svg>
