<svg width="40" height="40" viewBox="0 0 40 40" fill="none" xmlns="http://www.w3.org/2000/svg">
<rect x="0.5" y="0.5" width="39" height="39" rx="19.5" fill="#F9F9FB"/>
<rect x="0.5" y="0.5" width="39" height="39" rx="19.5" stroke="#E4E7EC"/>
<path d="M18.7499 20H14.1665M14.096 20.2429L12.1502 26.0552C11.9974 26.5118 11.9209 26.7401 11.9758 26.8807C12.0234 27.0028 12.1257 27.0954 12.2519 27.1306C12.3973 27.1712 12.6169 27.0724 13.056 26.8748L26.9822 20.608C27.4108 20.4151 27.6251 20.3186 27.6913 20.1847C27.7489 20.0683 27.7489 19.9317 27.6913 19.8153C27.6251 19.6814 27.4108 19.5849 26.9822 19.3921L13.0511 13.1231C12.6133 12.9261 12.3944 12.8276 12.2492 12.868C12.1231 12.9031 12.0208 12.9954 11.973 13.1173C11.918 13.2576 11.9936 13.4854 12.1448 13.9411L14.0965 19.8213C14.1225 19.8995 14.1355 19.9387 14.1406 19.9787C14.1452 20.0142 14.1451 20.0501 14.1405 20.0856C14.1352 20.1256 14.1222 20.1647 14.096 20.2429Z" stroke="#5D6B98" stroke-width="1.66667" stroke-linecap="round" stroke-linejoin="round"/>
</svg>
