<svg width="20" height="20" viewBox="0 0 20 20" fill="none" xmlns="http://www.w3.org/2000/svg">
<g id="Group 21142">
<path id="Icon" d="M16 8.33334L16 4.00001M16 4.00001H11.6667M16 4.00001L9.5 10.5M8.05556 4H6.46667C5.25322 4 4.6465 4 4.18302 4.23615C3.77534 4.44388 3.44388 4.77534 3.23615 5.18302C3 5.6465 3 6.25322 3 7.46667V13.5333C3 14.7468 3 15.3535 3.23615 15.817C3.44388 16.2247 3.77534 16.5561 4.18302 16.7638C4.6465 17 5.25322 17 6.46667 17H12.5333C13.7468 17 14.3535 17 14.817 16.7638C15.2247 16.5561 15.5561 16.2247 15.7638 15.817C16 15.3535 16 14.7468 16 13.5333V11.9444" stroke="#5D6B98" stroke-width="1.7" stroke-linecap="round" stroke-linejoin="round"/>
</g>
</svg>
