<svg width="20" height="20" viewBox="0 0 20 20" fill="none" xmlns="http://www.w3.org/2000/svg">
<mask id="mask0_7868_19703" style="mask-type:alpha" maskUnits="userSpaceOnUse" x="0" y="0" width="20" height="20">
<rect width="20" height="20" fill="#D9D9D9"/>
</mask>
<g mask="url(#mask0_7868_19703)">
<path d="M7.5 16.6665H4.16667C3.70833 16.6665 3.31597 16.5033 2.98958 16.1769C2.66319 15.8505 2.5 15.4582 2.5 14.9998V3.33317C2.5 2.87484 2.66319 2.48248 2.98958 2.15609C3.31597 1.8297 3.70833 1.6665 4.16667 1.6665H15.8333C16.2917 1.6665 16.684 1.8297 17.0104 2.15609C17.3368 2.48248 17.5 2.87484 17.5 3.33317V14.9998C17.5 15.4582 17.3368 15.8505 17.0104 16.1769C16.684 16.5033 16.2917 16.6665 15.8333 16.6665H12.5L10.5833 18.5832C10.4167 18.7498 10.2222 18.8332 10 18.8332C9.77778 18.8332 9.58333 18.7498 9.41667 18.5832L7.5 16.6665ZM9.91667 14.1665C10.2083 14.1665 10.4549 14.0658 10.6562 13.8644C10.8576 13.663 10.9583 13.4165 10.9583 13.1248C10.9583 12.8332 10.8576 12.5866 10.6562 12.3853C10.4549 12.1839 10.2083 12.0832 9.91667 12.0832C9.625 12.0832 9.37847 12.1839 9.17708 12.3853C8.97569 12.5866 8.875 12.8332 8.875 13.1248C8.875 13.4165 8.97569 13.663 9.17708 13.8644C9.37847 14.0658 9.625 14.1665 9.91667 14.1665ZM11.375 6.6665C11.375 6.90262 11.2986 7.15609 11.1458 7.42692C10.9931 7.69775 10.7361 7.99289 10.375 8.31234C10.1389 8.52067 9.94792 8.71859 9.80208 8.90609C9.65625 9.09359 9.53472 9.28456 9.4375 9.479C9.38194 9.59012 9.34028 9.70123 9.3125 9.81234C9.28472 9.92345 9.25694 10.0484 9.22917 10.1873C9.20139 10.3957 9.25694 10.5762 9.39583 10.729C9.53472 10.8818 9.71528 10.9582 9.9375 10.9582C10.1319 10.9582 10.3056 10.8887 10.4583 10.7498C10.6111 10.6109 10.7153 10.4234 10.7708 10.1873C10.8125 9.99289 10.8924 9.81234 11.0104 9.64567C11.1285 9.479 11.3194 9.26373 11.5833 8.99984C12.0694 8.51373 12.4132 8.104 12.6146 7.77067C12.816 7.43734 12.9167 7.06928 12.9167 6.6665C12.9167 5.9165 12.6632 5.31234 12.1562 4.854C11.6493 4.39567 10.9583 4.1665 10.0833 4.1665C9.45833 4.1665 8.91667 4.29845 8.45833 4.56234C8 4.82623 7.63194 5.19428 7.35417 5.6665C7.25694 5.83317 7.25347 6.00678 7.34375 6.18734C7.43403 6.36789 7.57639 6.49289 7.77083 6.56234C7.95139 6.63178 8.13194 6.63178 8.3125 6.56234C8.49306 6.49289 8.63889 6.38178 8.75 6.229C8.90278 6.03456 9.09028 5.87831 9.3125 5.76025C9.53472 5.6422 9.79167 5.58317 10.0833 5.58317C10.4444 5.58317 10.75 5.68387 11 5.88525C11.25 6.08664 11.375 6.34706 11.375 6.6665Z" fill="white"/>
</g>
</svg>
