<svg width="16" height="16" viewBox="0 0 16 16" fill="none" xmlns="http://www.w3.org/2000/svg">
<path d="M7.9625 12.5C8.225 12.5 8.44687 12.4094 8.62812 12.2281C8.80937 12.0469 8.9 11.825 8.9 11.5625C8.9 11.3 8.80937 11.0781 8.62812 10.8969C8.44687 10.7156 8.225 10.625 7.9625 10.625C7.7 10.625 7.47812 10.7156 7.29687 10.8969C7.11562 11.0781 7.025 11.3 7.025 11.5625C7.025 11.825 7.11562 12.0469 7.29687 12.2281C7.47812 12.4094 7.7 12.5 7.9625 12.5ZM8 15.5C6.9625 15.5 5.9875 15.3031 5.075 14.9094C4.1625 14.5156 3.36875 13.9812 2.69375 13.3062C2.01875 12.6312 1.48437 11.8375 1.09062 10.925C0.696875 10.0125 0.5 9.0375 0.5 8C0.5 6.9625 0.696875 5.9875 1.09062 5.075C1.48437 4.1625 2.01875 3.36875 2.69375 2.69375C3.36875 2.01875 4.1625 1.48437 5.075 1.09062C5.9875 0.696875 6.9625 0.5 8 0.5C9.0375 0.5 10.0125 0.696875 10.925 1.09062C11.8375 1.48437 12.6312 2.01875 13.3062 2.69375C13.9812 3.36875 14.5156 4.1625 14.9094 5.075C15.3031 5.9875 15.5 6.9625 15.5 8C15.5 9.0375 15.3031 10.0125 14.9094 10.925C14.5156 11.8375 13.9812 12.6312 13.3062 13.3062C12.6312 13.9812 11.8375 14.5156 10.925 14.9094C10.0125 15.3031 9.0375 15.5 8 15.5ZM8.075 4.775C8.3875 4.775 8.65937 4.875 8.89062 5.075C9.12187 5.275 9.2375 5.525 9.2375 5.825C9.2375 6.1 9.15312 6.34375 8.98437 6.55625C8.81562 6.76875 8.625 6.96875 8.4125 7.15625C8.125 7.40625 7.87187 7.68125 7.65312 7.98125C7.43437 8.28125 7.325 8.61875 7.325 8.99375C7.325 9.16875 7.39062 9.31562 7.52187 9.43437C7.65312 9.55312 7.80625 9.6125 7.98125 9.6125C8.16875 9.6125 8.32812 9.55 8.45937 9.425C8.59062 9.3 8.675 9.14375 8.7125 8.95625C8.7625 8.69375 8.875 8.45937 9.05 8.25312C9.225 8.04687 9.4125 7.85 9.6125 7.6625C9.9 7.3875 10.1469 7.0875 10.3531 6.7625C10.5594 6.4375 10.6625 6.075 10.6625 5.675C10.6625 5.0375 10.4031 4.51562 9.88437 4.10937C9.36562 3.70312 8.7625 3.5 8.075 3.5C7.6 3.5 7.14687 3.6 6.71562 3.8C6.28437 4 5.95625 4.30625 5.73125 4.71875C5.64375 4.86875 5.61562 5.02812 5.64687 5.19687C5.67812 5.36562 5.7625 5.49375 5.9 5.58125C6.075 5.68125 6.25625 5.7125 6.44375 5.675C6.63125 5.6375 6.7875 5.53125 6.9125 5.35625C7.05 5.16875 7.22187 5.025 7.42812 4.925C7.63437 4.825 7.85 4.775 8.075 4.775Z" fill="#B9C0D4"/>
</svg>
