<svg width="40" height="40" viewBox="0 0 40 40" fill="none" xmlns="http://www.w3.org/2000/svg">
<g id="location_on">
<mask id="mask0_9224_13122" style="mask-type:alpha" maskUnits="userSpaceOnUse" x="0" y="0" width="40" height="40">
<rect id="Bounding box" width="40" height="40" fill="#D9D9D9"/>
</mask>
<g mask="url(#mask0_9224_13122)">
<path id="location_on_2" d="M20.0013 32.2499C23.3902 29.1387 25.9041 26.3124 27.543 23.7707C29.1819 21.229 30.0013 18.9721 30.0013 16.9999C30.0013 13.9721 29.036 11.4929 27.1055 9.56236C25.1749 7.6318 22.8069 6.66652 20.0013 6.66652C17.1957 6.66652 14.8277 7.6318 12.8971 9.56236C10.9666 11.4929 10.0013 13.9721 10.0013 16.9999C10.0013 18.9721 10.8207 21.229 12.4596 23.7707C14.0985 26.3124 16.6124 29.1387 20.0013 32.2499ZM20.0013 35.5415C19.6124 35.5415 19.2235 35.4721 18.8346 35.3332C18.4457 35.1943 18.0985 34.986 17.793 34.7082C15.9874 33.0415 14.3902 31.4165 13.0013 29.8332C11.6124 28.2499 10.4527 26.7151 9.52214 25.229C8.59158 23.7429 7.88325 22.3124 7.39714 20.9374C6.91102 19.5624 6.66797 18.2499 6.66797 16.9999C6.66797 12.8332 8.00825 9.51375 10.6888 7.04152C13.3694 4.5693 16.4735 3.33319 20.0013 3.33319C23.5291 3.33319 26.6332 4.5693 29.3138 7.04152C31.9944 9.51375 33.3346 12.8332 33.3346 16.9999C33.3346 18.2499 33.0916 19.5624 32.6055 20.9374C32.1194 22.3124 31.411 23.7429 30.4805 25.229C29.5499 26.7151 28.3902 28.2499 27.0013 29.8332C25.6124 31.4165 24.0152 33.0415 22.2096 34.7082C21.9041 34.986 21.5569 35.1943 21.168 35.3332C20.7791 35.4721 20.3902 35.5415 20.0013 35.5415ZM20.0013 19.9999C20.918 19.9999 21.7027 19.6735 22.3555 19.0207C23.0082 18.3679 23.3346 17.5832 23.3346 16.6665C23.3346 15.7499 23.0082 14.9651 22.3555 14.3124C21.7027 13.6596 20.918 13.3332 20.0013 13.3332C19.0846 13.3332 18.2999 13.6596 17.6471 14.3124C16.9944 14.9651 16.668 15.7499 16.668 16.6665C16.668 17.5832 16.9944 18.3679 17.6471 19.0207C18.2999 19.6735 19.0846 19.9999 20.0013 19.9999Z" fill="#7F56D9"/>
</g>
</g>
</svg>
