<svg width="20" height="20" viewBox="0 0 20 20" fill="none" xmlns="http://www.w3.org/2000/svg">
<mask id="mask0_8617_24373" style="mask-type:alpha" maskUnits="userSpaceOnUse" x="0" y="0" width="20" height="20">
<rect width="20" height="20" fill="#D9D9D9"/>
</mask>
<g mask="url(#mask0_8617_24373)">
<path d="M9.71875 12.5938L5.1875 8.0625C5.125 8 5.07812 7.93229 5.04688 7.85938C5.01563 7.78646 5 7.70833 5 7.625C5 7.45833 5.05729 7.3125 5.17188 7.1875C5.28646 7.0625 5.4375 7 5.625 7H15.125C15.3125 7 15.4635 7.0625 15.5781 7.1875C15.6927 7.3125 15.75 7.45833 15.75 7.625C15.75 7.66667 15.6875 7.8125 15.5625 8.0625L11.0313 12.5938C10.9271 12.6979 10.8229 12.7708 10.7188 12.8125C10.6146 12.8542 10.5 12.875 10.375 12.875C10.25 12.875 10.1354 12.8542 10.0312 12.8125C9.92708 12.7708 9.82292 12.6979 9.71875 12.5938Z" fill="#4A5578"/>
</g>
</svg>
