<svg width="48" height="48" viewBox="0 0 48 48" fill="none" xmlns="http://www.w3.org/2000/svg">
<path d="M0.5 24C0.5 11.0213 11.0213 0.5 24 0.5C36.9787 0.5 47.5 11.0213 47.5 24C47.5 36.9787 36.9787 47.5 24 47.5C11.0213 47.5 0.5 36.9787 0.5 24Z" fill="#FCFCFD"/>
<path d="M0.5 24C0.5 11.0213 11.0213 0.5 24 0.5C36.9787 0.5 47.5 11.0213 47.5 24C47.5 36.9787 36.9787 47.5 24 47.5C11.0213 47.5 0.5 36.9787 0.5 24Z" stroke="#B9C0D4"/>
<mask id="mask0_8621_26877" style="mask-type:alpha" maskUnits="userSpaceOnUse" x="9" y="9" width="30" height="30">
<rect x="9" y="9" width="30" height="30" fill="#D9D9D9"/>
</mask>
<g mask="url(#mask0_8621_26877)">
<path d="M22.75 25.25H16.5C16.1458 25.25 15.849 25.1302 15.6094 24.8906C15.3698 24.651 15.25 24.3542 15.25 24C15.25 23.6458 15.3698 23.349 15.6094 23.1094C15.849 22.8698 16.1458 22.75 16.5 22.75H22.75V16.5C22.75 16.1458 22.8698 15.849 23.1094 15.6094C23.349 15.3698 23.6458 15.25 24 15.25C24.3542 15.25 24.651 15.3698 24.8906 15.6094C25.1302 15.849 25.25 16.1458 25.25 16.5V22.75H31.5C31.8542 22.75 32.151 22.8698 32.3906 23.1094C32.6302 23.349 32.75 23.6458 32.75 24C32.75 24.3542 32.6302 24.651 32.3906 24.8906C32.151 25.1302 31.8542 25.25 31.5 25.25H25.25V31.5C25.25 31.8542 25.1302 32.151 24.8906 32.3906C24.651 32.6302 24.3542 32.75 24 32.75C23.6458 32.75 23.349 32.6302 23.1094 32.3906C22.8698 32.151 22.75 31.8542 22.75 31.5V25.25Z" fill="#4A5578"/>
</g>
</svg>
