<svg width="20" height="20" viewBox="0 0 20 20" fill="none" xmlns="http://www.w3.org/2000/svg">
<rect width="20" height="20" rx="10" fill="#17B26A"/>
<mask id="mask0_8048_6317" style="mask-type:alpha" maskUnits="userSpaceOnUse" x="2" y="2" width="16" height="16">
<rect x="2" y="2" width="16" height="16" fill="#D9D9D9"/>
</mask>
<g mask="url(#mask0_8048_6317)">
<path d="M8.36738 11.9583L6.07142 9.6462L6.07117 9.64596C5.91969 9.49447 5.73615 9.41667 5.52546 9.41667C5.31477 9.41667 5.13124 9.49447 4.97975 9.64596C4.82897 9.79674 4.74853 9.97906 4.74218 10.1886C4.73576 10.4004 4.81087 10.5852 4.96309 10.7374L7.82975 13.604C7.98058 13.7549 8.1611 13.8333 8.36713 13.8333C8.57316 13.8333 8.75368 13.7549 8.90451 13.604L8.9046 13.6039L15.0212 7.47071C15.1727 7.31922 15.2505 7.13569 15.2505 6.925C15.2505 6.71431 15.1727 6.53078 15.0212 6.37929C14.8704 6.22846 14.6898 6.15 14.4838 6.15C14.2778 6.15 14.0972 6.22846 13.9464 6.37929L8.36738 11.9583Z" fill="white" stroke="white" stroke-width="0.2"/>
</g>
</svg>
