<svg width="24" height="24" viewBox="0 0 24 24" fill="none" xmlns="http://www.w3.org/2000/svg">
<g id="Group 21119">
<g id="Group 21095">
<g id="border_color">
<mask id="mask0_9400_9400" style="mask-type:alpha" maskUnits="userSpaceOnUse" x="4" y="4" width="16" height="16">
<rect id="Bounding box" x="4" y="4" width="16" height="16" fill="#D9D9D9"/>
</mask>
<g mask="url(#mask0_9400_9400)">
<path id="border_color_2" d="M6.66536 19.9999C6.2987 19.9999 5.98481 19.8693 5.7237 19.6082C5.46259 19.3471 5.33203 19.0332 5.33203 18.6665C5.33203 18.2999 5.46259 17.986 5.7237 17.7249C5.98481 17.4637 6.2987 17.3332 6.66536 17.3332H17.332C17.6987 17.3332 18.0126 17.4637 18.2737 17.7249C18.5348 17.986 18.6654 18.2999 18.6654 18.6665C18.6654 19.0332 18.5348 19.3471 18.2737 19.6082C18.0126 19.8693 17.6987 19.9999 17.332 19.9999H6.66536ZM7.9987 14.6665H8.93203L14.132 9.48319L13.182 8.53319L7.9987 13.7332V14.6665ZM6.66536 15.3332V13.4499C6.66536 13.361 6.68203 13.2749 6.71536 13.1915C6.7487 13.1082 6.7987 13.0332 6.86536 12.9665L14.132 5.71652C14.2543 5.5943 14.3959 5.49986 14.557 5.43319C14.7181 5.36652 14.8876 5.33319 15.0654 5.33319C15.2431 5.33319 15.4154 5.36652 15.582 5.43319C15.7487 5.49986 15.8987 5.59986 16.032 5.73319L16.9487 6.66652C17.082 6.78875 17.1793 6.93319 17.2404 7.09986C17.3015 7.26652 17.332 7.43875 17.332 7.61652C17.332 7.78319 17.3015 7.94708 17.2404 8.10819C17.1793 8.2693 17.082 8.41652 16.9487 8.54986L9.6987 15.7999C9.63203 15.8665 9.55703 15.9165 9.4737 15.9499C9.39036 15.9832 9.30425 15.9999 9.21536 15.9999H7.33203C7.14314 15.9999 6.98481 15.936 6.85703 15.8082C6.72925 15.6804 6.66536 15.5221 6.66536 15.3332Z" fill="#7D89B0"/>
</g>
</g>
</g>
</g>
</svg>
