<svg width="30" height="30" viewBox="0 0 30 30" fill="none" xmlns="http://www.w3.org/2000/svg">
<g id="save-01">
<path id="Icon" d="M8.75 3.75V8C8.75 8.70007 8.75 9.0501 8.88624 9.31749C9.00608 9.55269 9.19731 9.74392 9.43251 9.86376C9.6999 10 10.0499 10 10.75 10H19.25C19.9501 10 20.3001 10 20.5675 9.86376C20.8027 9.74392 20.9939 9.55269 21.1138 9.31749C21.25 9.0501 21.25 8.70007 21.25 8V5M21.25 26.25V18.25C21.25 17.5499 21.25 17.1999 21.1138 16.9325C20.9939 16.6973 20.8027 16.5061 20.5675 16.3862C20.3001 16.25 19.9501 16.25 19.25 16.25H10.75C10.0499 16.25 9.6999 16.25 9.43251 16.3862C9.19731 16.5061 9.00608 16.6973 8.88624 16.9325C8.75 17.1999 8.75 17.5499 8.75 18.25V26.25M26.25 11.6569V20.25C26.25 22.3502 26.25 23.4003 25.8413 24.2025C25.4817 24.9081 24.9081 25.4817 24.2025 25.8413C23.4003 26.25 22.3502 26.25 20.25 26.25H9.75C7.6498 26.25 6.5997 26.25 5.79754 25.8413C5.09193 25.4817 4.51825 24.9081 4.15873 24.2025C3.75 23.4003 3.75 22.3502 3.75 20.25V9.75C3.75 7.6498 3.75 6.5997 4.15873 5.79754C4.51825 5.09193 5.09193 4.51825 5.79754 4.15873C6.5997 3.75 7.6498 3.75 9.75 3.75H18.3431C18.9546 3.75 19.2604 3.75 19.5481 3.81908C19.8032 3.88032 20.047 3.98133 20.2707 4.1184C20.523 4.273 20.7392 4.48919 21.1716 4.92157L25.0784 8.82843C25.5108 9.26081 25.727 9.477 25.8816 9.72929C26.0187 9.95297 26.1197 10.1968 26.1809 10.4519C26.25 10.7396 26.25 11.0454 26.25 11.6569Z" stroke="#111322" stroke-width="2" stroke-linecap="round" stroke-linejoin="round"/>
</g>
</svg>
