<svg width="20" height="20" viewBox="0 0 20 20" fill="none" xmlns="http://www.w3.org/2000/svg">
<rect width="20" height="20" rx="10" fill="#F04438"/>
<mask id="mask0_8048_6325" style="mask-type:alpha" maskUnits="userSpaceOnUse" x="2" y="2" width="16" height="16">
<rect x="2" y="2" width="16" height="16" fill="#D9D9D9"/>
</mask>
<g mask="url(#mask0_8048_6325)">
<path d="M6.80359 14.2705L9.99954 11.0745L13.1955 14.2705C13.3383 14.4133 13.5202 14.4831 13.7329 14.4831C13.9456 14.4831 14.1274 14.4133 14.2703 14.2705C14.4131 14.1277 14.4829 13.9458 14.4829 13.7331C14.4829 13.5204 14.4131 13.3386 14.2703 13.1957L11.0743 9.99979L14.2703 6.80383C14.4131 6.66102 14.4829 6.47916 14.4829 6.26646C14.4829 6.05375 14.4131 5.87189 14.2703 5.72908L14.1995 5.79979L14.2703 5.72908C14.1274 5.58627 13.9456 5.51646 13.7329 5.51646C13.5202 5.51646 13.3383 5.58627 13.1955 5.72908L9.99954 8.92503L6.80359 5.72908C6.66078 5.58627 6.47891 5.51646 6.26621 5.51646C6.05351 5.51646 5.87164 5.58627 5.72883 5.72908C5.58603 5.87189 5.51621 6.05375 5.51621 6.26646C5.51621 6.47916 5.58603 6.66102 5.72883 6.80383L8.92479 9.99979L5.72883 13.1957C5.58603 13.3386 5.51621 13.5204 5.51621 13.7331C5.51621 13.9458 5.58603 14.1277 5.72883 14.2705C5.87164 14.4133 6.05351 14.4831 6.26621 14.4831C6.47891 14.4831 6.66078 14.4133 6.80359 14.2705Z" fill="white" stroke="white" stroke-width="0.2"/>
</g>
</svg>
