<svg width="20" height="20" viewBox="0 0 20 20" fill="none" xmlns="http://www.w3.org/2000/svg">
<g id="Group 21143">
<path id="content_copy" d="M7.58824 14C7.16765 14 6.8076 13.8531 6.50809 13.5594C6.20858 13.2656 6.05882 12.9125 6.05882 12.5V3.5C6.05882 3.0875 6.20858 2.73438 6.50809 2.44063C6.8076 2.14688 7.16765 2 7.58824 2H14.4706C14.8912 2 15.2512 2.14688 15.5507 2.44063C15.8502 2.73438 16 3.0875 16 3.5V12.5C16 12.9125 15.8502 13.2656 15.5507 13.5594C15.2512 13.8531 14.8912 14 14.4706 14H7.58824ZM7.58824 12.5H14.4706V3.5H7.58824V12.5ZM4.52941 17C4.10882 17 3.74877 16.8531 3.44926 16.5594C3.14975 16.2656 3 15.9125 3 15.5V5.75C3 5.5375 3.07328 5.35938 3.21985 5.21562C3.36642 5.07187 3.54804 5 3.76471 5C3.98137 5 4.16299 5.07187 4.30956 5.21562C4.45613 5.35938 4.52941 5.5375 4.52941 5.75V15.5H12.1765C12.3931 15.5 12.5748 15.5719 12.7213 15.7156C12.8679 15.8594 12.9412 16.0375 12.9412 16.25C12.9412 16.4625 12.8679 16.6406 12.7213 16.7844C12.5748 16.9281 12.3931 17 12.1765 17H4.52941Z" fill="#5D6B98"/>
</g>
</svg>
