<svg width="30" height="30" viewBox="0 0 30 30" fill="none" xmlns="http://www.w3.org/2000/svg">
    <path d="M23.75 26.25L27.5 22.5M27.5 22.5L23.75 18.75M27.5 22.5H20M19.375 4.11345C21.2074 4.85518 22.5 6.65164 22.5 8.75C22.5 10.8484 21.2074 12.6448 19.375 13.3866M15 18.75H10C7.67029 18.75 6.50544 18.75 5.58658 19.1306C4.36144 19.6381 3.38807 20.6114 2.8806 21.8366C2.5 22.7554 2.5 23.9203 2.5 26.25M16.875 8.75C16.875 11.5114 14.6364 13.75 11.875 13.75C9.11358 13.75 6.875 11.5114 6.875 8.75C6.875 5.98858 9.11358 3.75 11.875 3.75C14.6364 3.75 16.875 5.98858 16.875 8.75Z" stroke="#6941c6" stroke-width="2" stroke-linecap="round" stroke-linejoin="round"/>
</svg>
