<svg width="20" height="20" viewBox="0 0 20 20" fill="none" xmlns="http://www.w3.org/2000/svg">
<g id="download">
<mask id="mask0_9506_10694" style="mask-type:alpha" maskUnits="userSpaceOnUse" x="0" y="0" width="20" height="20">
<rect id="Bounding box" width="20" height="20" fill="#D9D9D9"/>
</mask>
<g mask="url(#mask0_9506_10694)">
<path id="download_2" d="M9.9987 12.9792C9.88759 12.9792 9.78342 12.9618 9.6862 12.9271C9.58898 12.8924 9.4987 12.8333 9.41536 12.75L6.41536 9.75001C6.2487 9.58334 6.16884 9.3889 6.17578 9.16668C6.18273 8.94445 6.26259 8.75001 6.41536 8.58334C6.58203 8.41668 6.77995 8.32987 7.00911 8.32293C7.23828 8.31598 7.4362 8.39584 7.60286 8.56251L9.16536 10.125V4.16668C9.16536 3.93057 9.24523 3.73265 9.40495 3.57293C9.56467 3.4132 9.76259 3.33334 9.9987 3.33334C10.2348 3.33334 10.4327 3.4132 10.5924 3.57293C10.7522 3.73265 10.832 3.93057 10.832 4.16668V10.125L12.3945 8.56251C12.5612 8.39584 12.7591 8.31598 12.9883 8.32293C13.2174 8.32987 13.4154 8.41668 13.582 8.58334C13.7348 8.75001 13.8147 8.94445 13.8216 9.16668C13.8286 9.3889 13.7487 9.58334 13.582 9.75001L10.582 12.75C10.4987 12.8333 10.4084 12.8924 10.3112 12.9271C10.214 12.9618 10.1098 12.9792 9.9987 12.9792ZM4.9987 16.6667C4.54036 16.6667 4.148 16.5035 3.82161 16.1771C3.49523 15.8507 3.33203 15.4583 3.33203 15V13.3333C3.33203 13.0972 3.41189 12.8993 3.57161 12.7396C3.73134 12.5799 3.92925 12.5 4.16536 12.5C4.40148 12.5 4.59939 12.5799 4.75911 12.7396C4.91884 12.8993 4.9987 13.0972 4.9987 13.3333V15H14.9987V13.3333C14.9987 13.0972 15.0786 12.8993 15.2383 12.7396C15.398 12.5799 15.5959 12.5 15.832 12.5C16.0681 12.5 16.2661 12.5799 16.4258 12.7396C16.5855 12.8993 16.6654 13.0972 16.6654 13.3333V15C16.6654 15.4583 16.5022 15.8507 16.1758 16.1771C15.8494 16.5035 15.457 16.6667 14.9987 16.6667H4.9987Z" fill="#5D6B98"/>
</g>
</g>
</svg>
