<svg width="20" height="20" viewBox="0 0 20 20" fill="none" xmlns="http://www.w3.org/2000/svg">
<g id="Group 21141">
<path id="play_arrow" d="M6 15.35V5C6 4.71667 6.1 4.47917 6.3 4.2875C6.5 4.09583 6.73333 4 7 4C7.08333 4 7.17083 4.0125 7.2625 4.0375C7.35417 4.0625 7.44167 4.1 7.525 4.15L15.675 9.325C15.825 9.425 15.9375 9.55 16.0125 9.7C16.0875 9.85 16.125 10.0083 16.125 10.175C16.125 10.3417 16.0875 10.5 16.0125 10.65C15.9375 10.8 15.825 10.925 15.675 11.025L7.525 16.2C7.44167 16.25 7.35417 16.2875 7.2625 16.3125C7.17083 16.3375 7.08333 16.35 7 16.35C6.73333 16.35 6.5 16.2542 6.3 16.0625C6.1 15.8708 6 15.6333 6 15.35ZM8 13.525L13.25 10.175L8 6.825V13.525Z" fill="#5D6B98"/>
</g>
</svg>
