<svg width="60" height="60" viewBox="0 0 60 60" fill="none" xmlns="http://www.w3.org/2000/svg">
<g id="Group 21083">
<circle id="Ellipse 18" cx="30" cy="30" r="28.5" fill="white" stroke="#D92D20" stroke-width="3"/>
<g id="check">
<mask id="mask0_7914_37953" style="mask-type:alpha" maskUnits="userSpaceOnUse" x="10" y="10" width="40" height="40">
<rect id="Bounding box" x="10.5" y="10.5" width="39" height="39" fill="#D9D9D9" stroke="#079455"/>
</mask>
<g mask="url(#mask0_7914_37953)">
<path id="check_2" d="M25.9178 35.2677L25.909 35.2588L19.9923 29.3005L25.9178 35.2677ZM25.9178 35.2677L25.9267 35.2588M25.9178 35.2677L25.9267 35.2588M25.9267 35.2588L40.0517 21.1338C40.3828 20.8027 40.7686 20.6375 41.2095 20.6375C41.6504 20.6375 42.0362 20.8027 42.3673 21.1338C42.6984 21.4649 42.8637 21.8576 42.8637 22.3125C42.8637 22.7674 42.6984 23.1601 42.3673 23.4912L42.3673 23.4912M25.9267 35.2588L42.3673 23.4912M42.3673 23.4912L27.0757 38.8245M42.3673 23.4912L27.0757 38.8245M27.0757 38.8245C27.0757 38.8245 27.0756 38.8245 27.0756 38.8245M27.0757 38.8245L27.0756 38.8245M27.0756 38.8245C26.7445 39.1556 26.3587 39.3208 25.9178 39.3208M27.0756 38.8245L25.9178 39.3208M25.9178 39.3208C25.4769 39.3208 25.0911 39.1556 24.76 38.8245M25.9178 39.3208L24.76 38.8245M24.76 38.8245L17.5933 31.6578M24.76 38.8245L17.5933 31.6578M17.5933 31.6578C17.2624 31.3269 17.104 30.9343 17.1178 30.4795M17.5933 31.6578L17.1178 30.4795M17.1178 30.4795C17.1316 30.0245 17.3038 29.6317 17.635 29.3005M17.1178 30.4795L17.635 29.3005M17.635 29.3005C17.9661 28.9694 18.3587 28.8042 18.8137 28.8042M17.635 29.3005L18.8137 28.8042M18.8137 28.8042C19.2686 28.8042 19.6612 28.9694 19.9923 29.3005L18.8137 28.8042Z" fill="#D92D20" stroke="#079455" stroke-width="0.025"/>
</g>
</g>
</g>
</svg>
