<svg width="40" height="40" viewBox="0 0 40 40" fill="none" xmlns="http://www.w3.org/2000/svg">
<rect x="0.5" y="0.5" width="39" height="39" rx="19.5" fill="white"/>
<rect x="0.5" y="0.5" width="39" height="39" rx="19.5" stroke="#7F56D9"/>
<mask id="mask0_7983_5729" style="mask-type:alpha" maskUnits="userSpaceOnUse" x="10" y="10" width="20" height="20">
<rect x="10" y="10" width="20" height="20" fill="#D9D9D9"/>
</mask>
<g mask="url(#mask0_7983_5729)">
<path d="M13.3337 15L20.0003 19.1667L26.667 15H13.3337ZM13.3337 26.6667C12.8753 26.6667 12.483 26.5035 12.1566 26.1771C11.8302 25.8507 11.667 25.4584 11.667 25V15C11.667 14.5417 11.8302 14.1493 12.1566 13.823C12.483 13.4966 12.8753 13.3334 13.3337 13.3334H26.667C27.1253 13.3334 27.5177 13.4966 27.8441 13.823C28.1705 14.1493 28.3337 14.5417 28.3337 15V19.1667C28.3337 19.4028 28.2538 19.6007 28.0941 19.7605C27.9344 19.9202 27.7364 20 27.5003 20C27.2642 20 27.0663 19.9202 26.9066 19.7605C26.7469 19.6007 26.667 19.4028 26.667 19.1667V16.6667L20.4378 20.5625C20.3962 20.5903 20.2503 20.632 20.0003 20.6875C19.9309 20.6875 19.858 20.6771 19.7816 20.6563C19.7052 20.6355 19.6323 20.6042 19.5628 20.5625L13.3337 16.6667V25H17.917C18.1531 25 18.351 25.0799 18.5107 25.2396C18.6705 25.3993 18.7503 25.5973 18.7503 25.8334C18.7503 26.0695 18.6705 26.2674 18.5107 26.4271C18.351 26.5868 18.1531 26.6667 17.917 26.6667H13.3337ZM23.292 26L27.417 21.875C27.5698 21.7223 27.7642 21.6459 28.0003 21.6459C28.2364 21.6459 28.4309 21.7223 28.5837 21.875C28.7364 22.0278 28.8128 22.2223 28.8128 22.4584C28.8128 22.6945 28.7364 22.8889 28.5837 23.0417L23.8753 27.75C23.7087 27.9167 23.5142 28 23.292 28C23.0698 28 22.8753 27.9167 22.7087 27.75L20.3337 25.375C20.1809 25.2223 20.1045 25.0278 20.1045 24.7917C20.1045 24.5556 20.1809 24.3612 20.3337 24.2084C20.4864 24.0556 20.6809 23.9792 20.917 23.9792C21.1531 23.9792 21.3475 24.0556 21.5003 24.2084L23.292 26Z" fill="#7F56D9"/>
</g>
</svg>
