<svg width="40" height="40" viewBox="0 0 40 40" fill="none" xmlns="http://www.w3.org/2000/svg">
<g id="Group 21066">
<g id="Group 21065">
<g id="Group 21063">
<path id="backup" d="M18.6668 21.132L17.4668 22.2987C17.2224 22.5431 16.9168 22.6654 16.5502 22.6654C16.1835 22.6654 15.8668 22.532 15.6002 22.2654C15.3557 22.0209 15.2335 21.7098 15.2335 21.332C15.2335 20.9543 15.3557 20.6431 15.6002 20.3987L19.0668 16.932C19.3335 16.6654 19.6446 16.532 20.0002 16.532C20.3557 16.532 20.6668 16.6654 20.9335 16.932L24.4002 20.3987C24.6446 20.6431 24.7724 20.9487 24.7835 21.3154C24.7946 21.682 24.6668 21.9987 24.4002 22.2654C24.1557 22.5098 23.8502 22.6376 23.4835 22.6487C23.1168 22.6598 22.8002 22.5431 22.5335 22.2987L21.3335 21.132V27.9987H28.6668C29.6002 27.9987 30.3891 27.6765 31.0335 27.032C31.6779 26.3876 32.0002 25.5987 32.0002 24.6654C32.0002 23.732 31.6779 22.9431 31.0335 22.2987C30.3891 21.6543 29.6002 21.332 28.6668 21.332H26.6668V18.6654C26.6668 16.8209 26.0168 15.2487 24.7168 13.9487C23.4168 12.6487 21.8446 11.9987 20.0002 11.9987C18.1557 11.9987 16.5835 12.6487 15.2835 13.9487C13.9835 15.2487 13.3335 16.8209 13.3335 18.6654H12.6668C11.3779 18.6654 10.2779 19.1209 9.36683 20.032C8.45572 20.9431 8.00016 22.0431 8.00016 23.332C8.00016 24.6209 8.45572 25.7209 9.36683 26.632C10.2779 27.5431 11.3779 27.9987 12.6668 27.9987H14.6668C15.0446 27.9987 15.3613 28.1265 15.6168 28.382C15.8724 28.6376 16.0002 28.9543 16.0002 29.332C16.0002 29.7098 15.8724 30.0265 15.6168 30.282C15.3613 30.5376 15.0446 30.6654 14.6668 30.6654H12.6668C10.6446 30.6654 8.91683 29.9654 7.4835 28.5654C6.05016 27.1654 5.3335 25.4543 5.3335 23.432C5.3335 21.6987 5.85572 20.1543 6.90016 18.7987C7.94461 17.4431 9.31127 16.5765 11.0002 16.1987C11.5557 14.1543 12.6668 12.4987 14.3335 11.232C16.0002 9.96536 17.8891 9.33203 20.0002 9.33203C22.6002 9.33203 24.8057 10.2376 26.6168 12.0487C28.4279 13.8598 29.3335 16.0654 29.3335 18.6654C30.8668 18.8431 32.1391 19.5043 33.1502 20.6487C34.1613 21.7931 34.6668 23.132 34.6668 24.6654C34.6668 26.332 34.0835 27.7487 32.9168 28.9154C31.7502 30.082 30.3335 30.6654 28.6668 30.6654H21.3335C20.6002 30.6654 19.9724 30.4043 19.4502 29.882C18.9279 29.3598 18.6668 28.732 18.6668 27.9987V21.132Z" fill="#30374F"/>
</g>
</g>
</g>
</svg>
