<svg width="48" height="48" viewBox="0 0 48 48" fill="none" xmlns="http://www.w3.org/2000/svg">
<g filter="url(#filter0_d_8379_40476)">
<rect x="4" y="3" width="40" height="40" rx="20" fill="white"/>
<rect x="4.5" y="3.5" width="39" height="39" rx="19.5" stroke="#4A5578"/>
</g>
<mask id="mask0_8379_40476" style="mask-type:alpha" maskUnits="userSpaceOnUse" x="12" y="11" width="24" height="24">
<rect x="12.5" y="11.5" width="23" height="23" fill="#D9D9D9" stroke="#4A5578"/>
</mask>
<g mask="url(#mask0_8379_40476)">
<path d="M23.0125 21.8V21.7698L22.9912 21.7912L21.0912 23.6912C20.9104 23.8719 20.6804 23.9625 20.4 23.9625C20.1196 23.9625 19.8896 23.8719 19.7088 23.6912C19.5281 23.5104 19.4375 23.2804 19.4375 23C19.4375 22.7196 19.5281 22.4896 19.7088 22.3088L23.3088 18.7088C23.4077 18.61 23.5145 18.5402 23.6292 18.4993C23.7444 18.4581 23.868 18.4375 24 18.4375C24.132 18.4375 24.2556 18.4581 24.3708 18.4993C24.4855 18.5402 24.5923 18.61 24.6912 18.7088L28.2912 22.3088C28.4719 22.4896 28.5625 22.7196 28.5625 23C28.5625 23.2804 28.4719 23.5104 28.2912 23.6912C28.1104 23.8719 27.8804 23.9625 27.6 23.9625C27.3196 23.9625 27.0896 23.8719 26.9088 23.6912L25.0088 21.7912L24.9875 21.7698V21.8V31C24.9875 31.2802 24.8929 31.5145 24.7037 31.7037C24.5145 31.8929 24.2802 31.9875 24 31.9875C23.7198 31.9875 23.4855 31.8929 23.2963 31.7037C23.1071 31.5145 23.0125 31.2802 23.0125 31V21.8ZM17 15.9875C16.7198 15.9875 16.4855 15.8929 16.2963 15.7037C16.1071 15.5145 16.0125 15.2802 16.0125 15C16.0125 14.7198 16.1071 14.4855 16.2963 14.2963C16.4855 14.1071 16.7198 14.0125 17 14.0125H31C31.2802 14.0125 31.5145 14.1071 31.7037 14.2963C31.8929 14.4855 31.9875 14.7198 31.9875 15C31.9875 15.2802 31.8929 15.5145 31.7037 15.7037C31.5145 15.8929 31.2802 15.9875 31 15.9875H17Z" fill="#4A5578" stroke="#4A5578" stroke-width="0.025"/>
</g>
<defs>
<filter id="filter0_d_8379_40476" x="0" y="0" width="48" height="48" filterUnits="userSpaceOnUse" color-interpolation-filters="sRGB">
<feFlood flood-opacity="0" result="BackgroundImageFix"/>
<feColorMatrix in="SourceAlpha" type="matrix" values="0 0 0 0 0 0 0 0 0 0 0 0 0 0 0 0 0 0 127 0" result="hardAlpha"/>
<feOffset dy="1"/>
<feGaussianBlur stdDeviation="2"/>
<feComposite in2="hardAlpha" operator="out"/>
<feColorMatrix type="matrix" values="0 0 0 0 0 0 0 0 0 0 0 0 0 0 0 0 0 0 0.15 0"/>
<feBlend mode="normal" in2="BackgroundImageFix" result="effect1_dropShadow_8379_40476"/>
<feBlend mode="normal" in="SourceGraphic" in2="effect1_dropShadow_8379_40476" result="shape"/>
</filter>
</defs>
</svg>
