<svg width="30" height="30" viewBox="0 0 30 30" fill="none" xmlns="http://www.w3.org/2000/svg">
<g id="line-chart-up-01">
<path id="Icon" d="M26.25 26.25H5.75C5.04993 26.25 4.6999 26.25 4.43251 26.1138C4.19731 25.9939 4.00608 25.8027 3.88624 25.5675C3.75 25.3001 3.75 24.9501 3.75 24.25V3.75M25 10L20.1014 15.2283C19.9158 15.4265 19.8229 15.5255 19.711 15.5767C19.6121 15.6219 19.5032 15.6406 19.395 15.6308C19.2723 15.6198 19.1518 15.5572 18.9108 15.4321L14.8392 13.3179C14.5982 13.1928 14.4777 13.1302 14.355 13.1192C14.2468 13.1094 14.1379 13.1281 14.039 13.1733C13.9271 13.2245 13.8342 13.3235 13.6486 13.5217L8.75 18.75" stroke="#111322" stroke-width="2" stroke-linecap="round" stroke-linejoin="round"/>
</g>
</svg>
