<svg width="20" height="20" viewBox="0 0 20 20" fill="none" xmlns="http://www.w3.org/2000/svg">
<g id="edit-05" clip-path="url(#clip0_9506_11053)">
<path id="Icon" d="M9.16797 3.33332H5.66797C4.26784 3.33332 3.56777 3.33332 3.03299 3.6058C2.56259 3.84549 2.18014 4.22794 1.94045 4.69834C1.66797 5.23312 1.66797 5.93319 1.66797 7.33332V14.3333C1.66797 15.7335 1.66797 16.4335 1.94045 16.9683C2.18014 17.4387 2.56259 17.8212 3.03299 18.0608C3.56777 18.3333 4.26784 18.3333 5.66797 18.3333H12.668C14.0681 18.3333 14.7682 18.3333 15.3029 18.0608C15.7734 17.8212 16.1558 17.4387 16.3955 16.9683C16.668 16.4335 16.668 15.7335 16.668 14.3333V10.8333M6.66795 13.3333H8.0634C8.47105 13.3333 8.67488 13.3333 8.86669 13.2873C9.03675 13.2464 9.19932 13.1791 9.34844 13.0877C9.51664 12.9847 9.66076 12.8405 9.94902 12.5523L17.918 4.58332C18.6083 3.89296 18.6083 2.77368 17.918 2.08332C17.2276 1.39296 16.1083 1.39296 15.418 2.08332L7.449 10.0523C7.16074 10.3405 7.01662 10.4847 6.91355 10.6528C6.82217 10.802 6.75482 10.9645 6.714 11.1346C6.66795 11.3264 6.66795 11.5302 6.66795 11.9379V13.3333Z" stroke="#344054" stroke-width="1.66667" stroke-linecap="round" stroke-linejoin="round"/>
</g>
<defs>
<clipPath id="clip0_9506_11053">
<rect width="20" height="20" fill="white"/>
</clipPath>
</defs>
</svg>
