<svg width="20" height="20" viewBox="0 0 20 20" fill="none" xmlns="http://www.w3.org/2000/svg">
<path d="M7.91675 18.3332H12.0834M8.33341 8.33317H11.6667M10.0001 8.33317L10.0001 13.3332M12.5001 12.7718C14.4709 11.8356 15.8334 9.82683 15.8334 7.49984C15.8334 4.27818 13.2217 1.6665 10.0001 1.6665C6.77842 1.6665 4.16675 4.27818 4.16675 7.49984C4.16675 9.82683 5.52929 11.8356 7.50008 12.7718V13.3332C7.50008 14.1097 7.50008 14.498 7.62695 14.8043C7.79611 15.2127 8.12056 15.5371 8.52894 15.7063C8.83523 15.8332 9.22351 15.8332 10.0001 15.8332C10.7767 15.8332 11.1649 15.8332 11.4712 15.7063C11.8796 15.5371 12.2041 15.2127 12.3732 14.8043C12.5001 14.498 12.5001 14.1097 12.5001 13.3332V12.7718Z" stroke="#404968" stroke-width="1.66667" stroke-linecap="round" stroke-linejoin="round"/>
</svg>
