<svg width="48" height="48" viewBox="0 0 48 48" fill="none" xmlns="http://www.w3.org/2000/svg">
<g id="Group 191">
<g id="Rectangle 3371" filter="url(#filter0_d_7914_44643)">
<rect x="4" y="3" width="40" height="40" rx="20" fill="white"/>
<rect x="4.5" y="3.5" width="39" height="39" rx="19.5" stroke="#DCDFEA"/>
</g>
<g id="vertical_align_top">
<mask id="mask0_7914_44643" style="mask-type:alpha" maskUnits="userSpaceOnUse" x="12" y="11" width="24" height="24">
<rect id="Bounding box" x="12" y="11" width="24" height="24" fill="#D9D9D9"/>
</mask>
<g mask="url(#mask0_7914_44643)">
<path id="vertical_align_top_2" d="M17 16C16.7167 16 16.4792 15.9042 16.2875 15.7125C16.0958 15.5208 16 15.2833 16 15C16 14.7167 16.0958 14.4792 16.2875 14.2875C16.4792 14.0958 16.7167 14 17 14H31C31.2833 14 31.5208 14.0958 31.7125 14.2875C31.9042 14.4792 32 14.7167 32 15C32 15.2833 31.9042 15.5208 31.7125 15.7125C31.5208 15.9042 31.2833 16 31 16H17ZM24 32C23.7167 32 23.4792 31.9042 23.2875 31.7125C23.0958 31.5208 23 31.2833 23 31V21.8L21.1 23.7C20.9167 23.8833 20.6833 23.975 20.4 23.975C20.1167 23.975 19.8833 23.8833 19.7 23.7C19.5167 23.5167 19.425 23.2833 19.425 23C19.425 22.7167 19.5167 22.4833 19.7 22.3L23.3 18.7C23.4 18.6 23.5083 18.5292 23.625 18.4875C23.7417 18.4458 23.8667 18.425 24 18.425C24.1333 18.425 24.2583 18.4458 24.375 18.4875C24.4917 18.5292 24.6 18.6 24.7 18.7L28.3 22.3C28.4833 22.4833 28.575 22.7167 28.575 23C28.575 23.2833 28.4833 23.5167 28.3 23.7C28.1167 23.8833 27.8833 23.975 27.6 23.975C27.3167 23.975 27.0833 23.8833 26.9 23.7L25 21.8V31C25 31.2833 24.9042 31.5208 24.7125 31.7125C24.5208 31.9042 24.2833 32 24 32Z" fill="#4A5578"/>
</g>
</g>
</g>
<defs>
<filter id="filter0_d_7914_44643" x="0" y="0" width="48" height="48" filterUnits="userSpaceOnUse" color-interpolation-filters="sRGB">
<feFlood flood-opacity="0" result="BackgroundImageFix"/>
<feColorMatrix in="SourceAlpha" type="matrix" values="0 0 0 0 0 0 0 0 0 0 0 0 0 0 0 0 0 0 127 0" result="hardAlpha"/>
<feOffset dy="1"/>
<feGaussianBlur stdDeviation="2"/>
<feComposite in2="hardAlpha" operator="out"/>
<feColorMatrix type="matrix" values="0 0 0 0 0 0 0 0 0 0 0 0 0 0 0 0 0 0 0.15 0"/>
<feBlend mode="normal" in2="BackgroundImageFix" result="effect1_dropShadow_7914_44643"/>
<feBlend mode="normal" in="SourceGraphic" in2="effect1_dropShadow_7914_44643" result="shape"/>
</filter>
</defs>
</svg>
