<svg width="40" height="40" viewBox="0 0 40 40" fill="none" xmlns="http://www.w3.org/2000/svg">
<g id="drafts">
<mask id="mask0_9224_13171" style="mask-type:alpha" maskUnits="userSpaceOnUse" x="0" y="0" width="40" height="40">
<rect id="Bounding box" width="40" height="40" fill="#D9D9D9"/>
</mask>
<g mask="url(#mask0_9224_13171)">
<path id="drafts_2" d="M21.707 2.66692L35.082 10.6669C35.582 10.9725 35.9709 11.3891 36.2487 11.9169C36.5265 12.4447 36.6654 13.0003 36.6654 13.5836V31.6669C36.6654 32.5836 36.339 33.3683 35.6862 34.0211C35.0334 34.6739 34.2487 35.0003 33.332 35.0003H6.66536C5.7487 35.0003 4.96398 34.6739 4.3112 34.0211C3.65842 33.3683 3.33203 32.5836 3.33203 31.6669V13.5836C3.33203 13.0003 3.47092 12.4447 3.7487 11.9169C4.02648 11.3891 4.41536 10.9725 4.91536 10.6669L18.2904 2.66692C18.8181 2.36137 19.3876 2.20859 19.9987 2.20859C20.6098 2.20859 21.1793 2.36137 21.707 2.66692ZM19.9987 21.0836L32.9987 13.3336L19.9987 5.58359L6.9987 13.3336L19.9987 21.0836ZM18.2904 23.9586L6.66536 17.0003V31.6669H33.332V17.0003L21.707 23.9586C21.1793 24.2641 20.6098 24.4169 19.9987 24.4169C19.3876 24.4169 18.8181 24.2641 18.2904 23.9586Z" fill="#7F56D9"/>
</g>
</g>
</svg>
