<svg width="40" height="40" viewBox="0 0 40 40" fill="none" xmlns="http://www.w3.org/2000/svg">
<rect x="0.5" y="0.5" width="39" height="39" rx="19.5" fill="white"/>
<rect x="0.5" y="0.5" width="39" height="39" rx="19.5" stroke="#7F56D9"/>
<path d="M20.0003 19.9999H20.0045M24.167 19.9999H24.1712M15.8337 19.9999H15.8378M14.3337 15.8333H25.667C26.6004 15.8333 27.0671 15.8333 27.4236 16.0149C27.7372 16.1747 27.9922 16.4297 28.152 16.7433C28.3337 17.0998 28.3337 17.5665 28.3337 18.4999V21.4999C28.3337 22.4333 28.3337 22.9001 28.152 23.2566C27.9922 23.5702 27.7372 23.8251 27.4236 23.9849C27.0671 24.1666 26.6004 24.1666 25.667 24.1666H14.3337C13.4002 24.1666 12.9335 24.1666 12.577 23.9849C12.2634 23.8251 12.0084 23.5702 11.8486 23.2566C11.667 22.9001 11.667 22.4333 11.667 21.4999V18.4999C11.667 17.5665 11.667 17.0998 11.8486 16.7433C12.0084 16.4297 12.2634 16.1747 12.577 16.0149C12.9335 15.8333 13.4002 15.8333 14.3337 15.8333ZM20.2087 19.9999C20.2087 20.115 20.1154 20.2083 20.0003 20.2083C19.8853 20.2083 19.792 20.115 19.792 19.9999C19.792 19.8849 19.8853 19.7916 20.0003 19.7916C20.1154 19.7916 20.2087 19.8849 20.2087 19.9999ZM24.3753 19.9999C24.3753 20.115 24.2821 20.2083 24.167 20.2083C24.0519 20.2083 23.9587 20.115 23.9587 19.9999C23.9587 19.8849 24.0519 19.7916 24.167 19.7916C24.2821 19.7916 24.3753 19.8849 24.3753 19.9999ZM16.042 19.9999C16.042 20.115 15.9487 20.2083 15.8337 20.2083C15.7186 20.2083 15.6253 20.115 15.6253 19.9999C15.6253 19.8849 15.7186 19.7916 15.8337 19.7916C15.9487 19.7916 16.042 19.8849 16.042 19.9999Z" stroke="#7F56D9" stroke-width="1.66667" stroke-linecap="round" stroke-linejoin="round"/>
</svg>
