<svg width="30" height="30" viewBox="0 0 30 30" fill="none" xmlns="http://www.w3.org/2000/svg">
<path d="M8.75 13.75V10C8.75 6.54822 11.5482 3.75 15 3.75C18.0237 3.75 20.5459 5.8972 21.125 8.75M9.75 26.25H20.25C22.3502 26.25 23.4003 26.25 24.2025 25.8413C24.9081 25.4817 25.4817 24.9081 25.8413 24.2025C26.25 23.4003 26.25 22.3502 26.25 20.25V19.75C26.25 17.6498 26.25 16.5997 25.8413 15.7975C25.4817 15.0919 24.9081 14.5183 24.2025 14.1587C23.4003 13.75 22.3502 13.75 20.25 13.75H9.75C7.6498 13.75 6.5997 13.75 5.79754 14.1587C5.09193 14.5183 4.51825 15.0919 4.15873 15.7975C3.75 16.5997 3.75 17.6498 3.75 19.75V20.25C3.75 22.3502 3.75 23.4003 4.15873 24.2025C4.51825 24.9081 5.09193 25.4817 5.79754 25.8413C6.5997 26.25 7.6498 26.25 9.75 26.25Z" stroke="#34C759" stroke-width="2" stroke-linecap="round" stroke-linejoin="round"/>
</svg>
