<svg width="30" height="30" viewBox="0 0 30 30" fill="none" xmlns="http://www.w3.org/2000/svg">
<g id="desktop_windows">
<mask id="mask0_8262_4204" style="mask-type:alpha" maskUnits="userSpaceOnUse" x="0" y="0" width="30" height="30">
<rect id="Bounding box" width="30" height="30" fill="#D9D9D9"/>
</mask>
<g mask="url(#mask0_8262_4204)">
<path id="desktop_windows_2" d="M12.5 23.75V21.25H5C4.3125 21.25 3.72396 21.0052 3.23438 20.5156C2.74479 20.026 2.5 19.4375 2.5 18.75V6.25C2.5 5.5625 2.74479 4.97396 3.23438 4.48438C3.72396 3.99479 4.3125 3.75 5 3.75H25C25.6875 3.75 26.276 3.99479 26.7656 4.48438C27.2552 4.97396 27.5 5.5625 27.5 6.25V18.75C27.5 19.4375 27.2552 20.026 26.7656 20.5156C26.276 21.0052 25.6875 21.25 25 21.25H17.5V23.75H18.75C19.1042 23.75 19.401 23.8698 19.6406 24.1094C19.8802 24.349 20 24.6458 20 25C20 25.3542 19.8802 25.651 19.6406 25.8906C19.401 26.1302 19.1042 26.25 18.75 26.25H11.25C10.8958 26.25 10.599 26.1302 10.3594 25.8906C10.1198 25.651 10 25.3542 10 25C10 24.6458 10.1198 24.349 10.3594 24.1094C10.599 23.8698 10.8958 23.75 11.25 23.75H12.5ZM5 18.75H25V6.25H5V18.75Z" fill="#7D89B0"/>
</g>
</g>
</svg>
