<svg width="24" height="24" viewBox="0 0 24 24" fill="none" xmlns="http://www.w3.org/2000/svg">
<g id="Group 21133">
<path id="check" d="M9.78769 14.9448L17.4608 7.27162C17.6419 7.09054 17.8532 7 18.0946 7C18.3361 7 18.5473 7.09054 18.7284 7.27162C18.9095 7.45269 19 7.66772 19 7.9167C19 8.16569 18.9095 8.38072 18.7284 8.56179L10.4215 16.8914C10.2404 17.0724 10.0291 17.163 9.78769 17.163C9.54625 17.163 9.33499 17.0724 9.15392 16.8914L5.26075 12.9982C5.07967 12.8171 4.99291 12.6021 5.00045 12.3531C5.008 12.1041 5.10231 11.8891 5.28339 11.708C5.46446 11.5269 5.67949 11.4364 5.92847 11.4364C6.17746 11.4364 6.39249 11.5269 6.57356 11.708L9.78769 14.9448Z" fill="#4A5578"/>
</g>
</svg>
