<svg width="18" height="18" viewBox="0 0 18 18" fill="none" xmlns="http://www.w3.org/2000/svg">
<path d="M3.70645 5.65197C3.24165 5.12835 3.00925 4.86653 3.00049 4.64402C2.99287 4.45073 3.07528 4.26495 3.22326 4.14178C3.39362 4 3.74215 4 4.43922 4H13.5608C14.2578 4 14.6064 4 14.7767 4.14178C14.9247 4.26495 15.0071 4.45073 14.9995 4.64402C14.9907 4.86653 14.7583 5.12835 14.2935 5.65197L10.7868 9.60251C10.6942 9.70689 10.6479 9.75908 10.6148 9.81847C10.5855 9.87115 10.564 9.92787 10.551 9.98682C10.5363 10.0533 10.5363 10.1233 10.5363 10.2634V13.5756C10.5363 13.6967 10.5363 13.7573 10.517 13.8097C10.4998 13.8559 10.472 13.8974 10.4357 13.9306C10.3947 13.9682 10.3389 13.9907 10.2273 14.0357L8.13787 14.8781C7.912 14.9692 7.79907 15.0147 7.70841 14.9957C7.62913 14.9791 7.55955 14.9317 7.51481 14.8636C7.46365 14.7858 7.46365 14.6632 7.46365 14.418V10.2634C7.46365 10.1233 7.46365 10.0533 7.44898 9.98682C7.43596 9.92787 7.41447 9.87115 7.38517 9.81847C7.35214 9.75908 7.30581 9.70689 7.21316 9.60251L3.70645 5.65197Z" stroke="#5D6B98" stroke-width="1.5" stroke-linecap="round" stroke-linejoin="round"/>
</svg>
