<svg width="20" height="20" viewBox="0 0 20 20" fill="none" xmlns="http://www.w3.org/2000/svg">
<g id="save-01" clip-path="url(#clip0_9135_12920)">
<g id="refresh">
<mask id="mask0_9135_12920" style="mask-type:alpha" maskUnits="userSpaceOnUse" x="0" y="0" width="20" height="20">
<rect id="Bounding box" width="20" height="20" transform="matrix(-1 0 0 1 20 0)" fill="#D9D9D9"/>
</mask>
<g mask="url(#mask0_9135_12920)">
<path id="refresh_2" d="M10.0013 16.6667C11.8624 16.6667 13.4388 16.0208 14.7305 14.7292C16.0221 13.4375 16.668 11.8611 16.668 10C16.668 8.13889 16.0221 6.5625 14.7305 5.27083C13.4388 3.97917 11.8624 3.33333 10.0013 3.33333C9.04297 3.33333 8.1263 3.53125 7.2513 3.92708C6.3763 4.32292 5.6263 4.88889 5.0013 5.625V4.16667C5.0013 3.93056 4.92144 3.73264 4.76172 3.57292C4.602 3.41319 4.40408 3.33333 4.16797 3.33333C3.93186 3.33333 3.73394 3.41319 3.57422 3.57292C3.4145 3.73264 3.33463 3.93056 3.33463 4.16667V8.33333C3.33463 8.56944 3.4145 8.76736 3.57422 8.92708C3.73394 9.08681 3.93186 9.16667 4.16797 9.16667H8.33463C8.57075 9.16667 8.76866 9.08681 8.92838 8.92708C9.08811 8.76736 9.16797 8.56944 9.16797 8.33333C9.16797 8.09722 9.08811 7.89931 8.92838 7.73958C8.76866 7.57986 8.57075 7.5 8.33463 7.5H5.66797C6.11241 6.72222 6.72005 6.11111 7.49088 5.66667C8.26172 5.22222 9.09852 5 10.0013 5C11.3902 5 12.5707 5.48611 13.543 6.45833C14.5152 7.43056 15.0013 8.61111 15.0013 10C15.0013 11.3889 14.5152 12.5694 13.543 13.5417C12.5707 14.5139 11.3902 15 10.0013 15C9.05686 15 8.19227 14.7604 7.40755 14.2813C6.62283 13.8021 6.01519 13.1597 5.58463 12.3542C5.47352 12.1597 5.31727 12.0243 5.11588 11.9479C4.9145 11.8715 4.70963 11.8681 4.5013 11.9375C4.27908 12.0069 4.11936 12.1528 4.02213 12.375C3.92491 12.5972 3.93186 12.8056 4.04297 13C4.61241 14.1111 5.42491 15 6.48047 15.6667C7.53602 16.3333 8.70963 16.6667 10.0013 16.6667Z" fill="#5D6B98"/>
</g>
</g>
</g>
<defs>
<clipPath id="clip0_9135_12920">
<rect width="20" height="20" fill="white"/>
</clipPath>
</defs>
</svg>
