<svg width="100" height="100" viewBox="0 0 100 100" fill="none" xmlns="http://www.w3.org/2000/svg">
<mask id="mask0_7983_5740" style="mask-type:alpha" maskUnits="userSpaceOnUse" x="0" y="0" width="100" height="100">
<rect width="100" height="100" fill="#D9D9D9"/>
</mask>
<g mask="url(#mask0_7983_5740)">
<path d="M16.6654 24.9996L49.9987 45.8329L83.332 24.9996H16.6654ZM16.6654 83.3329C14.3737 83.3329 12.4119 82.517 10.7799 80.885C9.148 79.2531 8.33203 77.2913 8.33203 74.9996V24.9996C8.33203 22.7079 9.148 20.7461 10.7799 19.1142C12.4119 17.4822 14.3737 16.6663 16.6654 16.6663H83.332C85.6237 16.6663 87.5855 17.4822 89.2175 19.1142C90.8494 20.7461 91.6654 22.7079 91.6654 24.9996V45.8329C91.6654 47.0135 91.2661 48.0031 90.4675 48.8017C89.6688 49.6003 88.6793 49.9996 87.4987 49.9996C86.3181 49.9996 85.3286 49.6003 84.53 48.8017C83.7313 48.0031 83.332 47.0135 83.332 45.8329V33.3329L52.1862 52.8121C51.9779 52.951 51.2487 53.1593 49.9987 53.4371C49.6515 53.4371 49.2869 53.385 48.905 53.2808C48.523 53.1767 48.1584 53.0204 47.8112 52.8121L16.6654 33.3329V74.9996H39.582C40.7626 74.9996 41.7522 75.3989 42.5508 76.1975C43.3494 76.9961 43.7487 77.9857 43.7487 79.1663C43.7487 80.3468 43.3494 81.3364 42.5508 82.135C41.7522 82.9336 40.7626 83.3329 39.582 83.3329H16.6654ZM66.457 79.9996L87.082 59.3746C87.8459 58.6107 88.8182 58.2288 89.9987 58.2288C91.1793 58.2288 92.1515 58.6107 92.9154 59.3746C93.6793 60.1385 94.0612 61.1107 94.0612 62.2913C94.0612 63.4718 93.6793 64.444 92.9154 65.2079L69.3737 88.7496C68.5404 89.5829 67.5681 89.9996 66.457 89.9996C65.3459 89.9996 64.3737 89.5829 63.5404 88.7496L51.6654 76.8746C50.9015 76.1107 50.5195 75.1385 50.5195 73.9579C50.5195 72.7774 50.9015 71.8051 51.6654 71.0413C52.4293 70.2774 53.4015 69.8954 54.582 69.8954C55.7626 69.8954 56.7348 70.2774 57.4987 71.0413L66.457 79.9996Z" fill="#5D6B98"/>
</g>
</svg>
