<svg width="20" height="20" viewBox="0 0 20 20" fill="none" xmlns="http://www.w3.org/2000/svg">
<g id="delete">
<mask id="mask0_9631_6857" style="mask-type:alpha" maskUnits="userSpaceOnUse" x="0" y="0" width="20" height="20">
<rect id="Bounding box" width="20" height="20" fill="#D9D9D9"/>
</mask>
<g mask="url(#mask0_9631_6857)">
<path id="delete_2" d="M5.83154 17.5C5.37321 17.5 4.98085 17.3368 4.65446 17.0104C4.32807 16.684 4.16488 16.2917 4.16488 15.8333V5C3.92877 5 3.73085 4.92014 3.57113 4.76042C3.4114 4.60069 3.33154 4.40278 3.33154 4.16667C3.33154 3.93056 3.4114 3.73264 3.57113 3.57292C3.73085 3.41319 3.92877 3.33333 4.16488 3.33333H7.49821C7.49821 3.09722 7.57807 2.89931 7.73779 2.73958C7.89751 2.57986 8.09543 2.5 8.33154 2.5H11.6649C11.901 2.5 12.0989 2.57986 12.2586 2.73958C12.4183 2.89931 12.4982 3.09722 12.4982 3.33333H15.8315C16.0677 3.33333 16.2656 3.41319 16.4253 3.57292C16.585 3.73264 16.6649 3.93056 16.6649 4.16667C16.6649 4.40278 16.585 4.60069 16.4253 4.76042C16.2656 4.92014 16.0677 5 15.8315 5V15.8333C15.8315 16.2917 15.6683 16.684 15.342 17.0104C15.0156 17.3368 14.6232 17.5 14.1649 17.5H5.83154ZM14.1649 5H5.83154V15.8333H14.1649V5ZM8.33154 14.1667C8.56765 14.1667 8.76557 14.0868 8.92529 13.9271C9.08502 13.7674 9.16488 13.5694 9.16488 13.3333V7.5C9.16488 7.26389 9.08502 7.06597 8.92529 6.90625C8.76557 6.74653 8.56765 6.66667 8.33154 6.66667C8.09543 6.66667 7.89751 6.74653 7.73779 6.90625C7.57807 7.06597 7.49821 7.26389 7.49821 7.5V13.3333C7.49821 13.5694 7.57807 13.7674 7.73779 13.9271C7.89751 14.0868 8.09543 14.1667 8.33154 14.1667ZM11.6649 14.1667C11.901 14.1667 12.0989 14.0868 12.2586 13.9271C12.4183 13.7674 12.4982 13.5694 12.4982 13.3333V7.5C12.4982 7.26389 12.4183 7.06597 12.2586 6.90625C12.0989 6.74653 11.901 6.66667 11.6649 6.66667C11.4288 6.66667 11.2308 6.74653 11.0711 6.90625C10.9114 7.06597 10.8315 7.26389 10.8315 7.5V13.3333C10.8315 13.5694 10.9114 13.7674 11.0711 13.9271C11.2308 14.0868 11.4288 14.1667 11.6649 14.1667Z" fill="#D92D20"/>
</g>
</g>
</svg>
