<svg width="60" height="60" viewBox="0 0 60 60" fill="none" xmlns="http://www.w3.org/2000/svg">
<path d="M28 31.701L26.2 33.451C25.8333 33.8176 25.375 34.001 24.825 34.001C24.275 34.001 23.8 33.801 23.4 33.401C23.0333 33.0343 22.85 32.5676 22.85 32.001C22.85 31.4343 23.0333 30.9676 23.4 30.601L28.6 25.401C29 25.001 29.4667 24.801 30 24.801C30.5333 24.801 31 25.001 31.4 25.401L36.6 30.601C36.9667 30.9676 37.1583 31.426 37.175 31.976C37.1917 32.526 37 33.001 36.6 33.401C36.2333 33.7676 35.775 33.9593 35.225 33.976C34.675 33.9926 34.2 33.8176 33.8 33.451L32 31.701V42.001H43C44.4 42.001 45.5833 41.5176 46.55 40.551C47.5167 39.5843 48 38.401 48 37.001C48 35.601 47.5167 34.4176 46.55 33.451C45.5833 32.4843 44.4 32.001 43 32.001H40V28.001C40 25.2343 39.025 22.876 37.075 20.926C35.125 18.976 32.7667 18.001 30 18.001C27.2333 18.001 24.875 18.976 22.925 20.926C20.975 22.876 20 25.2343 20 28.001H19C17.0667 28.001 15.4167 28.6843 14.05 30.051C12.6833 31.4176 12 33.0676 12 35.001C12 36.9343 12.6833 38.5843 14.05 39.951C15.4167 41.3176 17.0667 42.001 19 42.001H22C22.5667 42.001 23.0417 42.1926 23.425 42.576C23.8083 42.9593 24 43.4343 24 44.001C24 44.5676 23.8083 45.0426 23.425 45.426C23.0417 45.8093 22.5667 46.001 22 46.001H19C15.9667 46.001 13.375 44.951 11.225 42.851C9.075 40.751 8 38.1843 8 35.151C8 32.551 8.78333 30.2343 10.35 28.201C11.9167 26.1676 13.9667 24.8676 16.5 24.301C17.3333 21.2343 19 18.751 21.5 16.851C24 14.951 26.8333 14.001 30 14.001C33.9 14.001 37.2083 15.3593 39.925 18.076C42.6417 20.7926 44 24.101 44 28.001C46.3 28.2676 48.2083 29.2593 49.725 30.976C51.2417 32.6926 52 34.701 52 37.001C52 39.501 51.125 41.626 49.375 43.376C47.625 45.126 45.5 46.001 43 46.001H32C30.9 46.001 29.9583 45.6093 29.175 44.826C28.3917 44.0426 28 43.101 28 42.001V31.701Z" fill="#6941C6"/>
</svg>
