<svg width="30" height="30" viewBox="0 0 30 30" fill="none" xmlns="http://www.w3.org/2000/svg">
<g id="Group 21097">
<g id="Group 21094">
<circle id="Ellipse 19" cx="15" cy="15" r="15" fill="#EFF1F5"/>
</g>
<g id="Group 21095">
<g id="border_color">
<mask id="mask0_8621_26859" style="mask-type:alpha" maskUnits="userSpaceOnUse" x="7" y="7" width="16" height="16">
<rect id="Bounding box" x="7" y="7" width="16" height="16" fill="#D9D9D9"/>
</mask>
<g mask="url(#mask0_8621_26859)">
<path id="border_color_2" d="M9.66683 22.9997C9.30016 22.9997 8.98627 22.8691 8.72516 22.608C8.46405 22.3469 8.3335 22.033 8.3335 21.6663C8.3335 21.2997 8.46405 20.9858 8.72516 20.7247C8.98627 20.4636 9.30016 20.333 9.66683 20.333H20.3335C20.7002 20.333 21.0141 20.4636 21.2752 20.7247C21.5363 20.9858 21.6668 21.2997 21.6668 21.6663C21.6668 22.033 21.5363 22.3469 21.2752 22.608C21.0141 22.8691 20.7002 22.9997 20.3335 22.9997H9.66683ZM11.0002 17.6663H11.9335L17.1335 12.483L16.1835 11.533L11.0002 16.733V17.6663ZM9.66683 18.333V16.4497C9.66683 16.3608 9.6835 16.2747 9.71683 16.1913C9.75016 16.108 9.80016 16.033 9.86683 15.9663L17.1335 8.71634C17.2557 8.59412 17.3974 8.49967 17.5585 8.43301C17.7196 8.36634 17.8891 8.33301 18.0668 8.33301C18.2446 8.33301 18.4168 8.36634 18.5835 8.43301C18.7502 8.49967 18.9002 8.59967 19.0335 8.73301L19.9502 9.66634C20.0835 9.78856 20.1807 9.93301 20.2418 10.0997C20.3029 10.2663 20.3335 10.4386 20.3335 10.6163C20.3335 10.783 20.3029 10.9469 20.2418 11.108C20.1807 11.2691 20.0835 11.4163 19.9502 11.5497L12.7002 18.7997C12.6335 18.8663 12.5585 18.9163 12.4752 18.9497C12.3918 18.983 12.3057 18.9997 12.2168 18.9997H10.3335C10.1446 18.9997 9.98627 18.9358 9.8585 18.808C9.73072 18.6802 9.66683 18.5219 9.66683 18.333Z" fill="#7D89B0"/>
</g>
</g>
</g>
</g>
</svg>
