<svg width="30" height="30" viewBox="0 0 30 30" fill="none" xmlns="http://www.w3.org/2000/svg">
<g id="filter_alt">
<mask id="mask0_9135_12403" style="mask-type:alpha" maskUnits="userSpaceOnUse" x="0" y="0" width="30" height="30">
<rect id="Bounding box" width="30" height="30" fill="#D9D9D9"/>
</mask>
<g mask="url(#mask0_9135_12403)">
<path id="filter_alt_2" d="M13.7523 25C13.3981 25 13.1013 24.8802 12.8617 24.6406C12.6221 24.401 12.5023 24.1042 12.5023 23.75V16.25L5.2523 7C4.9398 6.58333 4.89292 6.14583 5.11167 5.6875C5.33042 5.22917 5.71063 5 6.2523 5H23.7523C24.294 5 24.6742 5.22917 24.8929 5.6875C25.1117 6.14583 25.0648 6.58333 24.7523 7L17.5023 16.25V23.75C17.5023 24.1042 17.3825 24.401 17.1429 24.6406C16.9033 24.8802 16.6065 25 16.2523 25H13.7523ZM15.0023 15.375L21.1898 7.5H8.8148L15.0023 15.375Z" fill="#4A5578"/>
</g>
</g>
</svg>
