<svg width="30" height="30" viewBox="0 0 30 30" fill="none" xmlns="http://www.w3.org/2000/svg">
<path d="M0.5 15C0.5 6.99187 6.99187 0.5 15 0.5C23.0081 0.5 29.5 6.99187 29.5 15C29.5 23.0081 23.0081 29.5 15 29.5C6.99187 29.5 0.5 23.0081 0.5 15Z" fill="#FCFCFD"/>
<path d="M0.5 15C0.5 6.99187 6.99187 0.5 15 0.5C23.0081 0.5 29.5 6.99187 29.5 15C29.5 23.0081 23.0081 29.5 15 29.5C6.99187 29.5 0.5 23.0081 0.5 15Z" stroke="#DCDFEA"/>
<mask id="mask0_7868_18979" style="mask-type:alpha" maskUnits="userSpaceOnUse" x="5" y="5" width="20" height="20">
<rect x="5" y="5" width="20" height="20" fill="#D9D9D9"/>
</mask>
<g mask="url(#mask0_7868_18979)">
<path d="M14.1667 15.8333H10.0001C9.76397 15.8333 9.56605 15.7534 9.40633 15.5937C9.24661 15.434 9.16675 15.2361 9.16675 15C9.16675 14.7638 9.24661 14.5659 9.40633 14.4062C9.56605 14.2465 9.76397 14.1666 10.0001 14.1666H14.1667V9.99996C14.1667 9.76385 14.2466 9.56593 14.4063 9.40621C14.5661 9.24649 14.764 9.16663 15.0001 9.16663C15.2362 9.16663 15.4341 9.24649 15.5938 9.40621C15.7536 9.56593 15.8334 9.76385 15.8334 9.99996V14.1666H20.0001C20.2362 14.1666 20.4341 14.2465 20.5938 14.4062C20.7536 14.5659 20.8334 14.7638 20.8334 15C20.8334 15.2361 20.7536 15.434 20.5938 15.5937C20.4341 15.7534 20.2362 15.8333 20.0001 15.8333H15.8334V20C15.8334 20.2361 15.7536 20.434 15.5938 20.5937C15.4341 20.7534 15.2362 20.8333 15.0001 20.8333C14.764 20.8333 14.5661 20.7534 14.4063 20.5937C14.2466 20.434 14.1667 20.2361 14.1667 20V15.8333Z" fill="#30374F"/>
</g>
</svg>
