<svg width="100" height="100" viewBox="0 0 100 100" fill="none" xmlns="http://www.w3.org/2000/svg">
<mask id="mask0_7983_5971" style="mask-type:alpha" maskUnits="userSpaceOnUse" x="0" y="0" width="100" height="100">
<rect width="100" height="100" fill="#D9D9D9"/>
</mask>
<g mask="url(#mask0_7983_5971)">
<path d="M43.8333 57.4997L34.875 48.5413C34.1111 47.7775 33.1389 47.3955 31.9583 47.3955C30.7778 47.3955 29.8056 47.7775 29.0417 48.5413C28.2778 49.3052 27.8958 50.2775 27.8958 51.458C27.8958 52.6386 28.2778 53.6108 29.0417 54.3747L40.9167 66.2497C41.75 67.083 42.7222 67.4997 43.8333 67.4997C44.9445 67.4997 45.9167 67.083 46.75 66.2497L70.2917 42.708C71.0556 41.9441 71.4375 40.9719 71.4375 39.7913C71.4375 38.6108 71.0556 37.6386 70.2917 36.8747C69.5278 36.1108 68.5556 35.7288 67.375 35.7288C66.1945 35.7288 65.2222 36.1108 64.4583 36.8747L43.8333 57.4997ZM49.6667 91.6664C43.9028 91.6664 38.4861 90.5726 33.4167 88.3851C28.3472 86.1976 23.9375 83.2289 20.1875 79.4789C16.4375 75.7289 13.4688 71.3191 11.2813 66.2497C9.09375 61.1802 8 55.7636 8 49.9997C8 44.2358 9.09375 38.8191 11.2813 33.7497C13.4688 28.6802 16.4375 24.2705 20.1875 20.5205C23.9375 16.7705 28.3472 13.8018 33.4167 11.6143C38.4861 9.42676 43.9028 8.33301 49.6667 8.33301C55.4306 8.33301 60.8472 9.42676 65.9167 11.6143C70.9861 13.8018 75.3958 16.7705 79.1458 20.5205C82.8958 24.2705 85.8646 28.6802 88.0521 33.7497C90.2396 38.8191 91.3333 44.2358 91.3333 49.9997C91.3333 55.7636 90.2396 61.1802 88.0521 66.2497C85.8646 71.3191 82.8958 75.7289 79.1458 79.4789C75.3958 83.2289 70.9861 86.1976 65.9167 88.3851C60.8472 90.5726 55.4306 91.6664 49.6667 91.6664ZM49.6667 83.333C58.9722 83.333 66.8542 80.1039 73.3125 73.6455C79.7708 67.1872 83 59.3052 83 49.9997C83 40.6941 79.7708 32.8122 73.3125 26.3538C66.8542 19.8955 58.9722 16.6663 49.6667 16.6663C40.3611 16.6663 32.4792 19.8955 26.0208 26.3538C19.5625 32.8122 16.3333 40.6941 16.3333 49.9997C16.3333 59.3052 19.5625 67.1872 26.0208 73.6455C32.4792 80.1039 40.3611 83.333 49.6667 83.333Z" fill="#5D6B98"/>
</g>
</svg>
