<svg width="20" height="20" viewBox="0 0 20 20" fill="none" xmlns="http://www.w3.org/2000/svg">
<g id="flight">
<mask id="mask0_8617_23002" style="mask-type:alpha" maskUnits="userSpaceOnUse" x="0" y="0" width="20" height="20">
<rect id="Bounding box" width="20" height="20" fill="#D9D9D9"/>
</mask>
<g mask="url(#mask0_8617_23002)">
<path id="flight_2" d="M8.33329 11.5001L3.06246 13.6042C2.72913 13.7431 2.41315 13.7119 2.11454 13.5105C1.81593 13.3091 1.66663 13.0279 1.66663 12.6667V12.2084C1.66663 12.0417 1.70482 11.882 1.78121 11.7292C1.8576 11.5765 1.96524 11.4515 2.10413 11.3542L8.33329 7.00008V3.33342C8.33329 2.87508 8.49649 2.48272 8.82288 2.15633C9.14927 1.82994 9.54163 1.66675 9.99996 1.66675C10.4583 1.66675 10.8507 1.82994 11.177 2.15633C11.5034 2.48272 11.6666 2.87508 11.6666 3.33342V7.00008L17.8958 11.3542C18.0347 11.4515 18.1423 11.5765 18.2187 11.7292C18.2951 11.882 18.3333 12.0417 18.3333 12.2084V12.6667C18.3333 13.0279 18.184 13.3091 17.8854 13.5105C17.5868 13.7119 17.2708 13.7431 16.9375 13.6042L11.6666 11.5001V14.5001L13.8125 16.0001C13.9236 16.0834 14.0104 16.1841 14.0729 16.3022C14.1354 16.4202 14.1666 16.5487 14.1666 16.6876V17.1876C14.1666 17.4654 14.052 17.6911 13.8229 17.8647C13.5937 18.0383 13.3402 18.0834 13.0625 18.0001L9.99996 17.0834L6.93746 18.0001C6.65968 18.0834 6.40621 18.0383 6.17704 17.8647C5.94788 17.6911 5.83329 17.4654 5.83329 17.1876V16.6876C5.83329 16.5487 5.86454 16.4202 5.92704 16.3022C5.98954 16.1841 6.07635 16.0834 6.18746 16.0001L8.33329 14.5001V11.5001Z" fill="#404968"/>
</g>
</g>
</svg>
