<svg width="60" height="60" viewBox="0 0 60 60" fill="none" xmlns="http://www.w3.org/2000/svg">
<path d="M30.625 50C27.9448 50 25.426 49.4914 23.0687 48.4742C20.7115 47.457 18.6609 46.0766 16.9172 44.3328C15.1734 42.5891 13.793 40.5385 12.7758 38.1813C11.7586 35.824 11.25 33.3052 11.25 30.625C11.25 27.9448 11.7586 25.426 12.7758 23.0687C13.793 20.7115 15.1734 18.6609 16.9172 16.9172C18.6609 15.1734 20.7115 13.793 23.0687 12.7758C25.426 11.7586 27.9448 11.25 30.625 11.25C33.3052 11.25 35.824 11.7586 38.1813 12.7758C40.5385 13.793 42.5891 15.1734 44.3328 16.9172C46.0766 18.6609 47.457 20.7115 48.4742 23.0687C49.4914 25.426 50 27.9448 50 30.625C50 33.3052 49.4914 35.824 48.4742 38.1813C47.457 40.5385 46.0766 42.5891 44.3328 44.3328C42.5891 46.0766 40.5385 47.457 38.1813 48.4742C35.824 49.4914 33.3052 50 30.625 50ZM30.625 46.125C32.3687 46.125 34.0479 45.8424 35.6625 45.2773C37.2771 44.7122 38.7625 43.8969 40.1188 42.8313L18.4188 21.1312C17.3531 22.4875 16.5378 23.9729 15.9727 25.5875C15.4076 27.2021 15.125 28.8813 15.125 30.625C15.125 34.9521 16.6266 38.6172 19.6297 41.6203C22.6328 44.6234 26.2979 46.125 30.625 46.125ZM42.8313 40.1188C43.8969 38.7625 44.7122 37.2771 45.2773 35.6625C45.8424 34.0479 46.125 32.3687 46.125 30.625C46.125 26.2979 44.6234 22.6328 41.6203 19.6297C38.6172 16.6266 34.9521 15.125 30.625 15.125C28.8813 15.125 27.2021 15.4076 25.5875 15.9727C23.9729 16.5378 22.4875 17.3531 21.1312 18.4188L42.8313 40.1188Z" fill="#30374F"/>
</svg>
