<svg width="30" height="30" viewBox="0 0 30 30" fill="none" xmlns="http://www.w3.org/2000/svg">
<g id="folder_open">
<mask id="mask0_7899_33078" style="mask-type:alpha" maskUnits="userSpaceOnUse" x="0" y="0" width="30" height="30">
<rect id="Bounding box" width="30" height="30" fill="#D9D9D9"/>
</mask>
<g mask="url(#mask0_7899_33078)">
<path id="folder_open_2" d="M5 25C4.3125 25 3.72396 24.7552 3.23438 24.2656C2.74479 23.776 2.5 23.1875 2.5 22.5V7.49997C2.5 6.81247 2.74479 6.22393 3.23438 5.73434C3.72396 5.24476 4.3125 4.99997 5 4.99997H11.4687C11.8021 4.99997 12.1198 5.06247 12.4219 5.18747C12.724 5.31247 12.9896 5.48955 13.2187 5.71872L15 7.49997H26.25C26.6042 7.49997 26.901 7.61976 27.1406 7.85934C27.3802 8.09893 27.5 8.3958 27.5 8.74997C27.5 9.10414 27.3802 9.40101 27.1406 9.64059C26.901 9.88018 26.6042 9.99997 26.25 9.99997H13.9687L11.4687 7.49997H5V22.5L7.46875 14.2812C7.63542 13.7396 7.94271 13.3073 8.39062 12.9843C8.83854 12.6614 9.33333 12.5 9.875 12.5H26C26.8542 12.5 27.526 12.8385 28.0156 13.5156C28.5052 14.1927 28.6354 14.9271 28.4062 15.7187L26.1562 23.2187C25.9896 23.7604 25.6823 24.1927 25.2344 24.5156C24.7865 24.8385 24.2917 25 23.75 25H5ZM7.625 22.5H23.75L26 15H9.875L7.625 22.5Z" fill="#6941C6"/>
</g>
</g>
</svg>
