<svg width="20" height="20" viewBox="0 0 20 20" fill="none" xmlns="http://www.w3.org/2000/svg">
<g id="mail">
<mask id="mask0_8262_3997" style="mask-type:alpha" maskUnits="userSpaceOnUse" x="0" y="0" width="20" height="20">
<rect id="Bounding box" width="20" height="20" fill="#D9D9D9"/>
</mask>
<g mask="url(#mask0_8262_3997)">
<path id="mail_2" d="M3.33366 16.6667C2.87533 16.6667 2.48296 16.5035 2.15658 16.1771C1.83019 15.8507 1.66699 15.4583 1.66699 15V5C1.66699 4.54167 1.83019 4.14931 2.15658 3.82292C2.48296 3.49653 2.87533 3.33334 3.33366 3.33334H16.667C17.1253 3.33334 17.5177 3.49653 17.8441 3.82292C18.1705 4.14931 18.3337 4.54167 18.3337 5V15C18.3337 15.4583 18.1705 15.8507 17.8441 16.1771C17.5177 16.5035 17.1253 16.6667 16.667 16.6667H3.33366ZM16.667 6.66667L10.4378 10.5625C10.3684 10.6042 10.2955 10.6354 10.2191 10.6563C10.1427 10.6771 10.0698 10.6875 10.0003 10.6875C9.93088 10.6875 9.85796 10.6771 9.78158 10.6563C9.70519 10.6354 9.63227 10.6042 9.56283 10.5625L3.33366 6.66667V15H16.667V6.66667ZM10.0003 9.16667L16.667 5H3.33366L10.0003 9.16667ZM3.33366 6.875V5.64584V5.66667V5.65625V6.875Z" fill="#7D89B0"/>
</g>
</g>
</svg>
