<svg width="20" height="20" viewBox="0 0 20 20" fill="none" xmlns="http://www.w3.org/2000/svg">
<g id="face-smile" clip-path="url(#clip0_9824_6773)">
<path id="Icon" d="M6.66797 11.6667C6.66797 11.6667 7.91797 13.3333 10.0013 13.3333C12.0846 13.3333 13.3346 11.6667 13.3346 11.6667M12.5013 7.49999H12.5096M7.5013 7.49999H7.50964M18.3346 9.99999C18.3346 14.6024 14.6037 18.3333 10.0013 18.3333C5.39893 18.3333 1.66797 14.6024 1.66797 9.99999C1.66797 5.39762 5.39893 1.66666 10.0013 1.66666C14.6037 1.66666 18.3346 5.39762 18.3346 9.99999ZM12.918 7.49999C12.918 7.73011 12.7314 7.91666 12.5013 7.91666C12.2712 7.91666 12.0846 7.73011 12.0846 7.49999C12.0846 7.26987 12.2712 7.08332 12.5013 7.08332C12.7314 7.08332 12.918 7.26987 12.918 7.49999ZM7.91797 7.49999C7.91797 7.73011 7.73142 7.91666 7.5013 7.91666C7.27118 7.91666 7.08464 7.73011 7.08464 7.49999C7.08464 7.26987 7.27118 7.08332 7.5013 7.08332C7.73142 7.08332 7.91797 7.26987 7.91797 7.49999Z" stroke="#7D89B0" stroke-width="1.66667" stroke-linecap="round" stroke-linejoin="round"/>
</g>
<defs>
<clipPath id="clip0_9824_6773">
<rect width="20" height="20" fill="white"/>
</clipPath>
</defs>
</svg>
