<svg width="110" height="32" viewBox="0 0 110 32" fill="none" xmlns="http://www.w3.org/2000/svg">
<g id="Group 21106">
<g id="Vector">
<path d="M9.83113 7.96244V13.049H20.0488V20.7539H9.83113V31.9571H1V0H21.2433V7.9839H9.85246L9.83113 7.96244Z" fill="url(#paint0_linear_8305_6562)"/>
<path d="M23.2485 0H31.6956V32C27.0241 32 23.2485 28.2012 23.2485 23.501V0Z" fill="url(#paint1_linear_8305_6562)"/>
<path d="M59.3196 19.4232C59.3196 20.1315 59.2556 20.8182 59.1489 21.5265H42.0626C42.5746 24.1878 44.2597 25.5614 46.7555 25.5614C49.2512 25.5614 50.1471 24.7458 50.9151 23.3937H58.8076C57.1865 28.6734 52.5362 31.9785 46.7555 31.9785C40.9747 31.9785 34.2554 26.6989 34.2554 19.6164C34.2554 12.5339 39.5242 7.29711 46.7555 7.29711C53.9868 7.29711 59.3196 12.6197 59.3196 19.4232ZM51.5123 17.1268C50.8084 14.8089 49.1659 13.564 46.7555 13.564C44.3451 13.564 42.8305 14.8303 42.1906 17.1268H51.5123Z" fill="url(#paint2_linear_8305_6562)"/>
<path d="M75.2113 31.9785L71.1797 24.66L67.0628 31.9785H57.7411L65.8683 19.1657L58.3383 7.29711H67.6601L71.2011 13.5211L74.9127 7.29711H84.1065L76.5125 18.951L84.6611 31.9785H75.2113Z" fill="url(#paint3_linear_8305_6562)"/>
<path d="M109 8.00966V31.2145H102.859L102.176 29.5726C100.288 31.1115 97.895 32 95.2179 32C88.1658 32 83.1252 26.8233 83.1252 19.6121C83.1252 12.4008 88.1637 7.30999 95.2179 7.30999C97.9334 7.30999 100.361 8.22428 102.264 9.80389L103.076 8.00966H109ZM101.442 19.6292C101.442 16.6181 99.2559 14.356 96.2781 14.356C93.3002 14.356 91.118 16.6181 91.118 19.6292C91.118 22.6404 93.3045 24.9239 96.2781 24.9239C99.2516 24.9239 101.442 22.6618 101.442 19.6292Z" fill="url(#paint4_linear_8305_6562)"/>
</g>
</g>
<defs>
<linearGradient id="paint0_linear_8305_6562" x1="108.124" y1="16" x2="466.777" y2="16" gradientUnits="userSpaceOnUse">
<stop stop-color="#20D0F9"/>
<stop offset="1" stop-color="#B422FE"/>
</linearGradient>
<linearGradient id="paint1_linear_8305_6562" x1="-283.455" y1="16" x2="832.764" y2="16" gradientUnits="userSpaceOnUse">
<stop stop-color="#20D0F9"/>
<stop offset="1" stop-color="#B422FE"/>
</linearGradient>
<linearGradient id="paint2_linear_8305_6562" x1="-142.295" y1="16" x2="-141.376" y2="16" gradientUnits="userSpaceOnUse">
<stop stop-color="#20D0F9"/>
<stop offset="1" stop-color="#B422FE"/>
</linearGradient>
<linearGradient id="paint3_linear_8305_6562" x1="-226.639" y1="16" x2="123.617" y2="16" gradientUnits="userSpaceOnUse">
<stop stop-color="#20D0F9"/>
<stop offset="1" stop-color="#B422FE"/>
</linearGradient>
<linearGradient id="paint4_linear_8305_6562" x1="21.0789" y1="19.655" x2="88.3042" y2="19.655" gradientUnits="userSpaceOnUse">
<stop stop-color="#20D0F9"/>
<stop offset="1" stop-color="#B422FE"/>
</linearGradient>
</defs>
</svg>
