<svg width="30" height="30" viewBox="0 0 30 30" fill="none" xmlns="http://www.w3.org/2000/svg">
<g id="Group 21072">
<g id="Group 21070">
<circle id="Ellipse 13" cx="15" cy="15" r="15" fill="#EFF1F5"/>
</g>
<g id="Group 21071">
<g id="east">
<mask id="mask0_8413_53683" style="mask-type:alpha" maskUnits="userSpaceOnUse" x="5" y="5" width="20" height="20">
<rect id="Bounding box" x="5" y="5" width="20" height="20" fill="#D9D9D9"/>
</mask>
<g mask="url(#mask0_8413_53683)">
<path id="east_2" d="M20.1457 15.834H7.49984C7.26373 15.834 7.06581 15.7541 6.90609 15.5944C6.74637 15.4347 6.6665 15.2368 6.6665 15.0007C6.6665 14.7645 6.74637 14.5666 6.90609 14.4069C7.06581 14.2472 7.26373 14.1673 7.49984 14.1673H20.1457L16.9165 10.9173C16.7637 10.7645 16.6839 10.5736 16.6769 10.3444C16.67 10.1152 16.7498 9.91732 16.9165 9.75065C17.0693 9.59787 17.2637 9.52148 17.4998 9.52148C17.7359 9.52148 17.9304 9.59787 18.0832 9.75065L22.7498 14.4173C22.8332 14.5007 22.8922 14.5909 22.9269 14.6882C22.9616 14.7854 22.979 14.8895 22.979 15.0007C22.979 15.1118 22.9616 15.2159 22.9269 15.3132C22.8922 15.4104 22.8332 15.5007 22.7498 15.584L18.0832 20.2507C17.9304 20.4034 17.7394 20.4798 17.5103 20.4798C17.2811 20.4798 17.0832 20.4034 16.9165 20.2507C16.7498 20.084 16.6665 19.8861 16.6665 19.6569C16.6665 19.4277 16.7498 19.2298 16.9165 19.0632L20.1457 15.834Z" fill="#30374F"/>
</g>
</g>
</g>
</g>
</svg>
